<?xml version="1.0" encoding="UTF-8"?><svg id="Map" xmlns="http://www.w3.org/2000/svg" xmlns:xlink="http://www.w3.org/1999/xlink" viewBox="0 0 4993.32 4547.97"><g id="Rail"><polygon points="805.55 1451.92 962.27 1361.44 984.66 1374.37 827.94 1464.85 805.55 1451.92" fill="#b35417"/><polygon points="827.94 1477.77 827.94 1464.85 805.55 1451.92 805.55 1464.85 827.94 1477.77" fill="#833f0c"/><polygon points="984.66 1374.37 984.66 1387.29 827.94 1477.77 827.94 1464.85 984.66 1374.37" fill="#974811"/><polygon points="850.33 1477.77 1007.05 1387.29 1029.44 1400.22 872.72 1490.7 850.33 1477.77" fill="#b35417"/><polygon points="872.72 1503.62 872.72 1490.7 850.33 1477.77 850.33 1490.7 872.72 1503.62" fill="#833f0c"/><polygon points="1029.44 1400.22 1029.44 1413.14 872.72 1503.62 872.72 1490.7 1029.44 1400.22" fill="#974811"/><polygon points="895.11 1503.62 1051.82 1413.14 1074.21 1426.07 917.49 1516.55 895.11 1503.62" fill="#b35417"/><polygon points="917.49 1529.48 917.49 1516.55 895.11 1503.62 895.11 1516.55 917.49 1529.48" fill="#833f0c"/><polygon points="1074.21 1426.07 1074.21 1439 917.49 1529.48 917.49 1516.55 1074.21 1426.07" fill="#974811"/><polygon points="939.88 1529.48 1096.6 1439 1118.99 1451.92 962.27 1542.4 939.88 1529.48" fill="#b35417"/><polygon points="962.27 1555.33 962.27 1542.4 939.88 1529.48 939.88 1542.4 962.27 1555.33" fill="#833f0c"/><polygon points="1118.99 1451.92 1118.99 1464.85 962.27 1555.33 962.27 1542.4 1118.99 1451.92" fill="#974811"/><polygon points="1085.41 1484.24 1107.79 1471.31 1107.79 1458.38 1085.41 1471.31 1085.41 1484.24" fill="#9ca3a7"/><polygon points="906.3 1380.83 906.3 1367.9 1085.41 1471.31 1085.41 1484.24 906.3 1380.83" fill="#7e8386"/><polygon points="1107.79 1458.38 928.69 1354.98 906.3 1367.9 1085.41 1471.31 1107.79 1458.38" fill="#b8c0c6"/><polygon points="805.55 1439 805.55 1426.07 984.66 1529.48 984.66 1542.4 805.55 1439" fill="#7e8386"/><polygon points="1007.05 1529.48 984.66 1542.4 984.66 1529.48 1007.05 1516.55 1007.05 1529.48" fill="#9ca3a7"/><polygon points="805.55 1426.07 827.94 1413.14 1007.05 1516.55 984.66 1529.48 805.55 1426.07" fill="#b8c0c6"/><polygon points="984.66 1555.33 1141.38 1464.85 1163.76 1477.77 1007.05 1568.25 984.66 1555.33" fill="#b35417"/><polygon points="1007.05 1581.18 1007.05 1568.25 984.66 1555.33 984.66 1568.25 1007.05 1581.18" fill="#833f0c"/><polygon points="1163.76 1477.77 1163.76 1490.7 1007.05 1581.18 1007.05 1568.25 1163.76 1477.77" fill="#974811"/><polygon points="1029.44 1581.18 1186.15 1490.7 1208.54 1503.62 1051.82 1594.1 1029.44 1581.18" fill="#b35417"/><polygon points="1051.82 1607.03 1051.82 1594.1 1029.44 1581.18 1029.44 1594.1 1051.82 1607.03" fill="#833f0c"/><polygon points="1208.54 1503.62 1208.54 1516.55 1051.82 1607.03 1051.82 1594.1 1208.54 1503.62" fill="#974811"/><polygon points="1074.21 1607.03 1230.93 1516.55 1253.32 1529.48 1096.6 1619.96 1074.21 1607.03" fill="#b35417"/><polygon points="1096.6 1632.88 1096.6 1619.96 1074.21 1607.03 1074.21 1619.96 1096.6 1632.88" fill="#833f0c"/><polygon points="1253.32 1529.48 1253.32 1542.4 1096.6 1632.88 1096.6 1619.96 1253.32 1529.48" fill="#974811"/><polygon points="1118.99 1632.88 1275.7 1542.4 1298.09 1555.33 1141.38 1645.81 1118.99 1632.88" fill="#b35417"/><polygon points="1141.38 1658.73 1141.38 1645.81 1118.99 1632.88 1118.99 1645.81 1141.38 1658.73" fill="#833f0c"/><polygon points="1298.09 1555.33 1298.09 1568.25 1141.38 1658.73 1141.38 1645.81 1298.09 1555.33" fill="#974811"/><polygon points="1264.51 1587.64 1286.9 1574.72 1286.9 1561.79 1264.51 1574.72 1264.51 1587.64" fill="#9ca3a7"/><polygon points="1085.41 1484.24 1085.41 1471.31 1264.51 1574.72 1264.51 1587.64 1085.41 1484.24" fill="#7e8386"/><polygon points="1286.9 1561.79 1107.79 1458.38 1085.41 1471.31 1264.51 1574.72 1286.9 1561.79" fill="#b8c0c6"/><polygon points="984.66 1542.4 984.66 1529.48 1163.76 1632.88 1163.76 1645.81 984.66 1542.4" fill="#7e8386"/><polygon points="1186.15 1632.88 1163.76 1645.81 1163.76 1632.88 1186.15 1619.96 1186.15 1632.88" fill="#9ca3a7"/><polygon points="984.66 1529.48 1007.05 1516.55 1186.15 1619.96 1163.76 1632.88 984.66 1529.48" fill="#b8c0c6"/><polygon points="1163.76 1658.73 1320.48 1568.25 1342.87 1581.18 1186.15 1671.66 1163.76 1658.73" fill="#b35417"/><polygon points="1186.15 1684.58 1186.15 1671.66 1163.76 1658.73 1163.76 1671.66 1186.15 1684.58" fill="#833f0c"/><polygon points="1342.87 1581.18 1342.87 1594.1 1186.15 1684.58 1186.15 1671.66 1342.87 1581.18" fill="#974811"/><polygon points="1208.54 1684.58 1365.26 1594.1 1387.64 1607.03 1230.93 1697.51 1208.54 1684.58" fill="#b35417"/><polygon points="1230.93 1710.44 1230.93 1697.51 1208.54 1684.58 1208.54 1697.51 1230.93 1710.44" fill="#833f0c"/><polygon points="1387.64 1607.03 1387.64 1619.96 1230.93 1710.44 1230.93 1697.51 1387.64 1607.03" fill="#974811"/><polygon points="1253.32 1710.44 1410.03 1619.96 1432.42 1632.88 1275.7 1723.36 1253.32 1710.44" fill="#b35417"/><polygon points="1275.7 1736.29 1275.7 1723.36 1253.32 1710.44 1253.32 1723.36 1275.7 1736.29" fill="#833f0c"/><polygon points="1432.42 1632.88 1432.42 1645.81 1275.7 1736.29 1275.7 1723.36 1432.42 1632.88" fill="#974811"/><polygon points="1298.09 1736.29 1454.81 1645.81 1477.2 1658.73 1320.48 1749.21 1298.09 1736.29" fill="#b35417"/><polygon points="1320.48 1762.14 1320.48 1749.21 1298.09 1736.29 1298.09 1749.21 1320.48 1762.14" fill="#833f0c"/><polygon points="1477.2 1658.73 1477.2 1671.66 1320.48 1762.14 1320.48 1749.21 1477.2 1658.73" fill="#974811"/><polygon points="1443.61 1691.05 1466 1678.12 1466 1665.2 1443.61 1678.12 1443.61 1691.05" fill="#9ca3a7"/><polygon points="1264.51 1587.64 1264.51 1574.72 1443.61 1678.12 1443.61 1691.05 1264.51 1587.64" fill="#7e8386"/><polygon points="1466 1665.2 1286.9 1561.79 1264.51 1574.72 1443.61 1678.12 1466 1665.2" fill="#b8c0c6"/><polygon points="1163.76 1645.81 1163.76 1632.88 1342.87 1736.29 1342.87 1749.21 1163.76 1645.81" fill="#7e8386"/><polygon points="1365.26 1736.29 1342.87 1749.21 1342.87 1736.29 1365.26 1723.36 1365.26 1736.29" fill="#9ca3a7"/><polygon points="1163.76 1632.88 1186.15 1619.96 1365.26 1723.36 1342.87 1736.29 1163.76 1632.88" fill="#b8c0c6"/><polygon points="1342.87 1762.14 1499.58 1671.66 1521.97 1684.58 1365.26 1775.07 1342.87 1762.14" fill="#b35417"/><polygon points="1365.26 1787.99 1365.26 1775.07 1342.87 1762.14 1342.87 1775.07 1365.26 1787.99" fill="#833f0c"/><polygon points="1521.97 1684.58 1521.97 1697.51 1365.26 1787.99 1365.26 1775.07 1521.97 1684.58" fill="#974811"/><polygon points="1387.64 1787.99 1544.36 1697.51 1566.75 1710.44 1410.03 1800.92 1387.64 1787.99" fill="#b35417"/><polygon points="1410.03 1813.84 1410.03 1800.92 1387.64 1787.99 1387.64 1800.92 1410.03 1813.84" fill="#833f0c"/><polygon points="1566.75 1710.44 1566.75 1723.36 1410.03 1813.84 1410.03 1800.92 1566.75 1710.44" fill="#974811"/><polygon points="1432.42 1813.84 1589.14 1723.36 1611.52 1736.29 1454.81 1826.77 1432.42 1813.84" fill="#b35417"/><polygon points="1454.81 1839.69 1454.81 1826.77 1432.42 1813.84 1432.42 1826.77 1454.81 1839.69" fill="#833f0c"/><polygon points="1611.52 1736.29 1611.52 1749.21 1454.81 1839.69 1454.81 1826.77 1611.52 1736.29" fill="#974811"/><polygon points="1477.2 1839.69 1633.91 1749.21 1656.3 1762.14 1499.58 1852.62 1477.2 1839.69" fill="#b35417"/><polygon points="1499.58 1865.55 1499.58 1852.62 1477.2 1839.69 1477.2 1852.62 1499.58 1865.55" fill="#833f0c"/><polygon points="1656.3 1762.14 1656.3 1775.07 1499.58 1865.55 1499.58 1852.62 1656.3 1762.14" fill="#974811"/><polygon points="1622.72 1794.45 1645.11 1781.53 1645.11 1768.6 1622.72 1781.53 1622.72 1794.45" fill="#9ca3a7"/><polygon points="1443.61 1691.05 1443.61 1678.12 1622.72 1781.53 1622.72 1794.45 1443.61 1691.05" fill="#7e8386"/><polygon points="1645.11 1768.6 1466 1665.2 1443.61 1678.12 1622.72 1781.53 1645.11 1768.6" fill="#b8c0c6"/><polygon points="1342.87 1749.21 1342.87 1736.29 1521.97 1839.69 1521.97 1852.62 1342.87 1749.21" fill="#7e8386"/><polygon points="1544.36 1839.69 1521.97 1852.62 1521.97 1839.69 1544.36 1826.77 1544.36 1839.69" fill="#9ca3a7"/><polygon points="1342.87 1736.29 1365.26 1723.36 1544.36 1826.77 1521.97 1839.69 1342.87 1736.29" fill="#b8c0c6"/><polygon points="1521.97 1865.55 1678.69 1775.07 1701.08 1787.99 1544.36 1878.47 1521.97 1865.55" fill="#b35417"/><polygon points="1544.36 1891.4 1544.36 1878.47 1521.97 1865.55 1521.97 1878.47 1544.36 1891.4" fill="#833f0c"/><polygon points="1701.08 1787.99 1701.08 1800.92 1544.36 1891.4 1544.36 1878.47 1701.08 1787.99" fill="#974811"/><polygon points="1566.75 1891.4 1723.46 1800.92 1745.85 1813.84 1589.14 1904.32 1566.75 1891.4" fill="#b35417"/><polygon points="1589.14 1917.25 1589.14 1904.32 1566.75 1891.4 1566.75 1904.32 1589.14 1917.25" fill="#833f0c"/><polygon points="1745.85 1813.84 1745.85 1826.77 1589.14 1917.25 1589.14 1904.32 1745.85 1813.84" fill="#974811"/><polygon points="1611.52 1917.25 1768.24 1826.77 1790.63 1839.69 1633.91 1930.17 1611.52 1917.25" fill="#b35417"/><polygon points="1633.91 1943.1 1633.91 1930.17 1611.52 1917.25 1611.52 1930.17 1633.91 1943.1" fill="#833f0c"/><polygon points="1790.63 1839.69 1790.63 1852.62 1633.91 1943.1 1633.91 1930.17 1790.63 1839.69" fill="#974811"/><polygon points="1656.3 1943.1 1813.02 1852.62 1835.41 1865.55 1678.69 1956.03 1656.3 1943.1" fill="#b35417"/><polygon points="1678.69 1968.95 1678.69 1956.03 1656.3 1943.1 1656.3 1956.03 1678.69 1968.95" fill="#833f0c"/><polygon points="1835.41 1865.55 1835.41 1878.47 1678.69 1968.95 1678.69 1956.03 1835.41 1865.55" fill="#974811"/><polygon points="1801.82 1897.86 1824.21 1884.93 1824.21 1872.01 1801.82 1884.93 1801.82 1897.86" fill="#9ca3a7"/><polygon points="1622.72 1794.45 1622.72 1781.53 1801.82 1884.93 1801.82 1897.86 1622.72 1794.45" fill="#7e8386"/><polygon points="1824.21 1872.01 1645.11 1768.6 1622.72 1781.53 1801.82 1884.93 1824.21 1872.01" fill="#b8c0c6"/><polygon points="1521.97 1852.62 1521.97 1839.69 1701.08 1943.1 1701.08 1956.03 1521.97 1852.62" fill="#7e8386"/><polygon points="1723.46 1943.1 1701.08 1956.03 1701.08 1943.1 1723.46 1930.17 1723.46 1943.1" fill="#9ca3a7"/><polygon points="1521.97 1839.69 1544.36 1826.77 1723.46 1930.17 1701.08 1943.1 1521.97 1839.69" fill="#b8c0c6"/><polygon points="1701.08 1968.95 1857.79 1878.47 1880.18 1891.4 1723.46 1981.88 1701.08 1968.95" fill="#b35417"/><polygon points="1723.46 1994.8 1723.46 1981.88 1701.08 1968.95 1701.08 1981.88 1723.46 1994.8" fill="#833f0c"/><polygon points="1880.18 1891.4 1880.18 1904.32 1723.46 1994.8 1723.46 1981.88 1880.18 1891.4" fill="#974811"/><polygon points="1745.85 1994.8 1902.57 1904.32 1924.96 1917.25 1768.24 2007.73 1745.85 1994.8" fill="#b35417"/><polygon points="1768.24 2020.65 1768.24 2007.73 1745.85 1994.8 1745.85 2007.73 1768.24 2020.65" fill="#833f0c"/><polygon points="1924.96 1917.25 1924.96 1930.17 1768.24 2020.65 1768.24 2007.73 1924.96 1917.25" fill="#974811"/><polygon points="1790.63 2020.65 1947.35 1930.17 1969.73 1943.1 1813.02 2033.58 1790.63 2020.65" fill="#b35417"/><polygon points="1813.02 2046.51 1813.02 2033.58 1790.63 2020.65 1790.63 2033.58 1813.02 2046.51" fill="#833f0c"/><polygon points="1969.73 1943.1 1969.73 1956.03 1813.02 2046.51 1813.02 2033.58 1969.73 1943.1" fill="#974811"/><polygon points="1835.41 2046.51 1992.12 1956.03 2014.51 1968.95 1857.79 2059.43 1835.41 2046.51" fill="#b35417"/><polygon points="1857.79 2072.36 1857.79 2059.43 1835.41 2046.51 1835.41 2059.43 1857.79 2072.36" fill="#833f0c"/><polygon points="2014.51 1968.95 2014.51 1981.88 1857.79 2072.36 1857.79 2059.43 2014.51 1968.95" fill="#974811"/><polygon points="1980.93 2001.27 2003.32 1988.34 2003.32 1975.41 1980.93 1988.34 1980.93 2001.27" fill="#9ca3a7"/><polygon points="1801.82 1897.86 1801.82 1884.93 1980.93 1988.34 1980.93 2001.27 1801.82 1897.86" fill="#7e8386"/><polygon points="2003.32 1975.41 1824.21 1872.01 1801.82 1884.93 1980.93 1988.34 2003.32 1975.41" fill="#b8c0c6"/><polygon points="1701.08 1956.03 1701.08 1943.1 1880.18 2046.51 1880.18 2059.43 1701.08 1956.03" fill="#7e8386"/><polygon points="1902.57 2046.51 1880.18 2059.43 1880.18 2046.51 1902.57 2033.58 1902.57 2046.51" fill="#9ca3a7"/><polygon points="1701.08 1943.1 1723.46 1930.17 1902.57 2033.58 1880.18 2046.51 1701.08 1943.1" fill="#b8c0c6"/><polygon points="1880.18 2072.36 2036.9 1981.88 2059.29 1994.8 1902.57 2085.28 1880.18 2072.36" fill="#b35417"/><polygon points="1902.57 2098.21 1902.57 2085.28 1880.18 2072.36 1880.18 2085.28 1902.57 2098.21" fill="#833f0c"/><polygon points="2059.29 1994.8 2059.29 2007.73 1902.57 2098.21 1902.57 2085.28 2059.29 1994.8" fill="#974811"/><polygon points="1924.96 2098.21 2081.67 2007.73 2104.06 2020.65 1947.35 2111.13 1924.96 2098.21" fill="#b35417"/><polygon points="1947.35 2124.06 1947.35 2111.13 1924.96 2098.21 1924.96 2111.13 1947.35 2124.06" fill="#833f0c"/><polygon points="2104.06 2020.65 2104.06 2033.58 1947.35 2124.06 1947.35 2111.13 2104.06 2020.65" fill="#974811"/><polygon points="1969.73 2124.06 2126.45 2033.58 2148.84 2046.51 1992.12 2136.99 1969.73 2124.06" fill="#b35417"/><polygon points="1992.12 2149.91 1992.12 2136.99 1969.73 2124.06 1969.73 2136.99 1992.12 2149.91" fill="#833f0c"/><polygon points="2148.84 2046.51 2148.84 2059.43 1992.12 2149.91 1992.12 2136.99 2148.84 2046.51" fill="#974811"/><polygon points="2014.51 2149.91 2171.23 2059.43 2193.61 2072.36 2036.9 2162.84 2014.51 2149.91" fill="#b35417"/><polygon points="2036.9 2175.76 2036.9 2162.84 2014.51 2149.91 2014.51 2162.84 2036.9 2175.76" fill="#833f0c"/><polygon points="2193.61 2072.36 2193.61 2085.28 2036.9 2175.76 2036.9 2162.84 2193.61 2072.36" fill="#974811"/><polygon points="2160.03 2104.67 2182.42 2091.75 2182.42 2078.82 2160.03 2091.75 2160.03 2104.67" fill="#9ca3a7"/><polygon points="1980.93 2001.27 1980.93 1988.34 2160.03 2091.75 2160.03 2104.67 1980.93 2001.27" fill="#7e8386"/><polygon points="2182.42 2078.82 2003.32 1975.41 1980.93 1988.34 2160.03 2091.75 2182.42 2078.82" fill="#b8c0c6"/><polygon points="1880.18 2059.43 1880.18 2046.51 2059.29 2149.91 2059.29 2162.84 1880.18 2059.43" fill="#7e8386"/><polygon points="2081.67 2149.91 2059.29 2162.84 2059.29 2149.91 2081.67 2136.99 2081.67 2149.91" fill="#9ca3a7"/><polygon points="1880.18 2046.51 1902.57 2033.58 2081.67 2136.99 2059.29 2149.91 1880.18 2046.51" fill="#b8c0c6"/><polygon points="2059.29 2175.76 2216 2085.28 2238.39 2098.21 2081.67 2188.69 2059.29 2175.76" fill="#b35417"/><polygon points="2081.67 2201.61 2081.67 2188.69 2059.29 2175.76 2059.29 2188.69 2081.67 2201.61" fill="#833f0c"/><polygon points="2238.39 2098.21 2238.39 2111.13 2081.67 2201.61 2081.67 2188.69 2238.39 2098.21" fill="#974811"/><polygon points="2104.06 2201.61 2260.78 2111.13 2283.17 2124.06 2126.45 2214.54 2104.06 2201.61" fill="#b35417"/><polygon points="2126.45 2227.47 2126.45 2214.54 2104.06 2201.61 2104.06 2214.54 2126.45 2227.47" fill="#833f0c"/><polygon points="2283.17 2124.06 2283.17 2136.99 2126.45 2227.47 2126.45 2214.54 2283.17 2124.06" fill="#974811"/><polygon points="2148.84 2227.47 2305.55 2136.99 2327.94 2149.91 2171.23 2240.39 2148.84 2227.47" fill="#b35417"/><polygon points="2171.23 2253.32 2171.23 2240.39 2148.84 2227.47 2148.84 2240.39 2171.23 2253.32" fill="#833f0c"/><polygon points="2327.94 2149.91 2327.94 2162.84 2171.23 2253.32 2171.23 2240.39 2327.94 2149.91" fill="#974811"/><polygon points="2193.61 2253.32 2350.33 2162.84 2372.72 2175.76 2216 2266.24 2193.61 2253.32" fill="#b35417"/><polygon points="2216 2279.17 2216 2266.24 2193.61 2253.32 2193.61 2266.24 2216 2279.17" fill="#833f0c"/><polygon points="2372.72 2175.76 2372.72 2188.69 2216 2279.17 2216 2266.24 2372.72 2175.76" fill="#974811"/><polygon points="2339.14 2208.08 2361.52 2195.15 2361.52 2182.23 2339.14 2195.15 2339.14 2208.08" fill="#9ca3a7"/><polygon points="2160.03 2104.67 2160.03 2091.75 2339.14 2195.15 2339.14 2208.08 2160.03 2104.67" fill="#7e8386"/><polygon points="2361.52 2182.23 2182.42 2078.82 2160.03 2091.75 2339.14 2195.15 2361.52 2182.23" fill="#b8c0c6"/><polygon points="2059.29 2162.84 2059.29 2149.91 2238.39 2253.32 2238.39 2266.24 2059.29 2162.84" fill="#7e8386"/><polygon points="2260.78 2253.32 2238.39 2266.24 2238.39 2253.32 2260.78 2240.39 2260.78 2253.32" fill="#9ca3a7"/><polygon points="2059.29 2149.91 2081.67 2136.99 2260.78 2240.39 2238.39 2253.32 2059.29 2149.91" fill="#b8c0c6"/><polygon points="2238.39 2279.17 2395.11 2188.69 2417.49 2201.61 2260.78 2292.1 2238.39 2279.17" fill="#b35417"/><polygon points="2260.78 2305.02 2260.78 2292.1 2238.39 2279.17 2238.39 2292.1 2260.78 2305.02" fill="#833f0c"/><polygon points="2417.49 2201.61 2417.49 2214.54 2260.78 2305.02 2260.78 2292.1 2417.49 2201.61" fill="#974811"/><polygon points="2283.17 2305.02 2439.88 2214.54 2462.27 2227.47 2305.55 2317.95 2283.17 2305.02" fill="#b35417"/><polygon points="2305.55 2330.87 2305.55 2317.95 2283.17 2305.02 2283.17 2317.95 2305.55 2330.87" fill="#833f0c"/><polygon points="2462.27 2227.47 2462.27 2240.39 2305.55 2330.87 2305.55 2317.95 2462.27 2227.47" fill="#974811"/><polygon points="2327.94 2330.87 2484.66 2240.39 2507.05 2253.32 2350.33 2343.8 2327.94 2330.87" fill="#b35417"/><polygon points="2350.33 2356.72 2350.33 2343.8 2327.94 2330.87 2327.94 2343.8 2350.33 2356.72" fill="#833f0c"/><polygon points="2507.05 2253.32 2507.05 2266.24 2350.33 2356.72 2350.33 2343.8 2507.05 2253.32" fill="#974811"/><polygon points="2372.72 2356.72 2529.44 2266.24 2551.82 2279.17 2395.11 2369.65 2372.72 2356.72" fill="#b35417"/><polygon points="2395.11 2382.58 2395.11 2369.65 2372.72 2356.72 2372.72 2369.65 2395.11 2382.58" fill="#833f0c"/><polygon points="2551.82 2279.17 2551.82 2292.1 2395.11 2382.58 2395.11 2369.65 2551.82 2279.17" fill="#974811"/><polygon points="2518.24 2311.48 2540.63 2298.56 2540.63 2285.63 2518.24 2298.56 2518.24 2311.48" fill="#9ca3a7"/><polygon points="2339.14 2208.08 2339.14 2195.15 2518.24 2298.56 2518.24 2311.48 2339.14 2208.08" fill="#7e8386"/><polygon points="2540.63 2285.63 2361.52 2182.23 2339.14 2195.15 2518.24 2298.56 2540.63 2285.63" fill="#b8c0c6"/><polygon points="2238.39 2266.24 2238.39 2253.32 2417.49 2356.72 2417.49 2369.65 2238.39 2266.24" fill="#7e8386"/><polygon points="2439.88 2356.72 2417.49 2369.65 2417.49 2356.72 2439.88 2343.8 2439.88 2356.72" fill="#9ca3a7"/><polygon points="2238.39 2253.32 2260.78 2240.39 2439.88 2343.8 2417.49 2356.72 2238.39 2253.32" fill="#b8c0c6"/><polygon points="2417.49 2382.58 2574.21 2292.09 2596.6 2305.02 2439.88 2395.5 2417.49 2382.58" fill="#b35417"/><polygon points="2439.88 2408.43 2439.88 2395.5 2417.49 2382.58 2417.49 2395.5 2439.88 2408.43" fill="#833f0c"/><polygon points="2596.6 2305.02 2596.6 2317.95 2439.88 2408.43 2439.88 2395.5 2596.6 2305.02" fill="#974811"/><polygon points="2462.27 2408.43 2618.99 2317.95 2641.38 2330.87 2484.66 2421.35 2462.27 2408.43" fill="#b35417"/><polygon points="2484.66 2434.28 2484.66 2421.35 2462.27 2408.43 2462.27 2421.35 2484.66 2434.28" fill="#833f0c"/><polygon points="2641.38 2330.87 2641.38 2343.8 2484.66 2434.28 2484.66 2421.35 2641.38 2330.87" fill="#974811"/><polygon points="2507.05 2434.28 2663.76 2343.8 2686.15 2356.72 2529.44 2447.2 2507.05 2434.28" fill="#b35417"/><polygon points="2529.44 2460.13 2529.44 2447.2 2507.05 2434.28 2507.05 2447.2 2529.44 2460.13" fill="#833f0c"/><polygon points="2686.15 2356.72 2686.15 2369.65 2529.44 2460.13 2529.44 2447.2 2686.15 2356.72" fill="#974811"/><polygon points="2551.82 2460.13 2708.54 2369.65 2730.93 2382.58 2574.21 2473.06 2551.82 2460.13" fill="#b35417"/><polygon points="2574.21 2485.98 2574.21 2473.06 2551.82 2460.13 2551.82 2473.06 2574.21 2485.98" fill="#833f0c"/><polygon points="2730.93 2382.58 2730.93 2395.5 2574.21 2485.98 2574.21 2473.06 2730.93 2382.58" fill="#974811"/><polygon points="2697.35 2414.89 2719.73 2401.96 2719.73 2389.04 2697.35 2401.96 2697.35 2414.89" fill="#9ca3a7"/><polygon points="2518.24 2311.48 2518.24 2298.56 2697.35 2401.96 2697.35 2414.89 2518.24 2311.48" fill="#7e8386"/><polygon points="2719.73 2389.04 2540.63 2285.63 2518.24 2298.56 2697.35 2401.96 2719.73 2389.04" fill="#b8c0c6"/><polygon points="2417.49 2369.65 2417.49 2356.72 2596.6 2460.13 2596.6 2473.06 2417.49 2369.65" fill="#7e8386"/><polygon points="2618.99 2460.13 2596.6 2473.06 2596.6 2460.13 2618.99 2447.2 2618.99 2460.13" fill="#9ca3a7"/><polygon points="2417.49 2356.72 2439.88 2343.8 2618.99 2447.2 2596.6 2460.13 2417.49 2356.72" fill="#b8c0c6"/><polygon points="2596.6 2485.98 2753.32 2395.5 2775.7 2408.43 2618.99 2498.91 2596.6 2485.98" fill="#b35417"/><polygon points="2618.99 2511.83 2618.99 2498.91 2596.6 2485.98 2596.6 2498.91 2618.99 2511.83" fill="#833f0c"/><polygon points="2775.7 2408.43 2775.7 2421.35 2618.99 2511.83 2618.99 2498.91 2775.7 2408.43" fill="#974811"/><polygon points="2641.38 2511.83 2798.09 2421.35 2820.48 2434.28 2663.76 2524.76 2641.38 2511.83" fill="#b35417"/><polygon points="2663.76 2537.68 2663.76 2524.76 2641.38 2511.83 2641.38 2524.76 2663.76 2537.68" fill="#833f0c"/><polygon points="2820.48 2434.28 2820.48 2447.2 2663.76 2537.68 2663.76 2524.76 2820.48 2434.28" fill="#974811"/><polygon points="2686.15 2537.68 2842.87 2447.2 2865.26 2460.13 2708.54 2550.61 2686.15 2537.68" fill="#b35417"/><polygon points="2708.54 2563.54 2708.54 2550.61 2686.15 2537.68 2686.15 2550.61 2708.54 2563.54" fill="#833f0c"/><polygon points="2865.26 2460.13 2865.26 2473.06 2708.54 2563.54 2708.54 2550.61 2865.26 2460.13" fill="#974811"/><polygon points="2730.93 2563.54 2887.64 2473.06 2910.03 2485.98 2753.32 2576.46 2730.93 2563.54" fill="#b35417"/><polygon points="2753.32 2589.39 2753.32 2576.46 2730.93 2563.54 2730.93 2576.46 2753.32 2589.39" fill="#833f0c"/><polygon points="2910.03 2485.98 2910.03 2498.91 2753.32 2589.39 2753.32 2576.46 2910.03 2485.98" fill="#974811"/><polygon points="2876.45 2518.3 2898.84 2505.37 2898.84 2492.44 2876.45 2505.37 2876.45 2518.3" fill="#9ca3a7"/><polygon points="2697.35 2414.89 2697.35 2401.96 2876.45 2505.37 2876.45 2518.3 2697.35 2414.89" fill="#7e8386"/><polygon points="2898.84 2492.44 2719.73 2389.04 2697.35 2401.96 2876.45 2505.37 2898.84 2492.44" fill="#b8c0c6"/><polygon points="2596.6 2473.06 2596.6 2460.13 2775.7 2563.54 2775.7 2576.46 2596.6 2473.06" fill="#7e8386"/><polygon points="2798.09 2563.54 2775.7 2576.46 2775.7 2563.54 2798.09 2550.61 2798.09 2563.54" fill="#9ca3a7"/><polygon points="2596.6 2460.13 2618.99 2447.2 2798.09 2550.61 2775.7 2563.54 2596.6 2460.13" fill="#b8c0c6"/><polygon points="2775.7 2589.39 2932.42 2498.91 2954.81 2511.83 2798.09 2602.31 2775.7 2589.39" fill="#b35417"/><polygon points="2798.09 2615.24 2798.09 2602.31 2775.7 2589.39 2775.7 2602.31 2798.09 2615.24" fill="#833f0c"/><polygon points="2954.81 2511.83 2954.81 2524.76 2798.09 2615.24 2798.09 2602.31 2954.81 2511.83" fill="#974811"/><polygon points="2820.48 2615.24 2977.2 2524.76 2999.58 2537.68 2842.87 2628.16 2820.48 2615.24" fill="#b35417"/><polygon points="2842.87 2641.09 2842.87 2628.16 2820.48 2615.24 2820.48 2628.16 2842.87 2641.09" fill="#833f0c"/><polygon points="2999.58 2537.68 2999.58 2550.61 2842.87 2641.09 2842.87 2628.16 2999.58 2537.68" fill="#974811"/><polygon points="2865.26 2641.09 3021.97 2550.61 3044.36 2563.54 2887.64 2654.02 2865.26 2641.09" fill="#b35417"/><polygon points="2887.64 2666.94 2887.64 2654.02 2865.26 2641.09 2865.26 2654.02 2887.64 2666.94" fill="#833f0c"/><polygon points="3044.36 2563.54 3044.36 2576.46 2887.64 2666.94 2887.64 2654.02 3044.36 2563.54" fill="#974811"/><polygon points="2910.03 2666.94 3066.75 2576.46 3089.14 2589.39 2932.42 2679.87 2910.03 2666.94" fill="#b35417"/><polygon points="2932.42 2692.79 2932.42 2679.87 2910.03 2666.94 2910.03 2679.87 2932.42 2692.79" fill="#833f0c"/><polygon points="3089.14 2589.39 3089.14 2602.31 2932.42 2692.79 2932.42 2679.87 3089.14 2589.39" fill="#974811"/><polygon points="3055.55 2621.7 3077.94 2608.78 3077.94 2595.85 3055.55 2608.78 3055.55 2621.7" fill="#9ca3a7"/><polygon points="2876.45 2518.3 2876.45 2505.37 3055.55 2608.78 3055.55 2621.7 2876.45 2518.3" fill="#7e8386"/><polygon points="3077.94 2595.85 2898.84 2492.44 2876.45 2505.37 3055.55 2608.78 3077.94 2595.85" fill="#b8c0c6"/><polygon points="2775.7 2576.46 2775.7 2563.54 2954.81 2666.94 2954.81 2679.87 2775.7 2576.46" fill="#7e8386"/><polygon points="2977.2 2666.94 2954.81 2679.87 2954.81 2666.94 2977.2 2654.02 2977.2 2666.94" fill="#9ca3a7"/><polygon points="2775.7 2563.54 2798.09 2550.61 2977.2 2654.02 2954.81 2666.94 2775.7 2563.54" fill="#b8c0c6"/><polygon points="2954.81 2692.79 3111.52 2602.31 3133.91 2615.24 2977.2 2705.72 2954.81 2692.79" fill="#b35417"/><polygon points="2977.2 2718.64 2977.2 2705.72 2954.81 2692.79 2954.81 2705.72 2977.2 2718.64" fill="#833f0c"/><polygon points="3133.91 2615.24 3133.91 2628.16 2977.2 2718.64 2977.2 2705.72 3133.91 2615.24" fill="#974811"/><polygon points="2999.58 2718.64 3156.3 2628.16 3178.69 2641.09 3021.97 2731.57 2999.58 2718.64" fill="#b35417"/><polygon points="3021.97 2744.5 3021.97 2731.57 2999.58 2718.64 2999.58 2731.57 3021.97 2744.5" fill="#833f0c"/><polygon points="3178.69 2641.09 3178.69 2654.02 3021.97 2744.5 3021.97 2731.57 3178.69 2641.09" fill="#974811"/><polygon points="3044.36 2744.5 3201.08 2654.02 3223.46 2666.94 3066.75 2757.42 3044.36 2744.5" fill="#b35417"/><polygon points="3066.75 2770.35 3066.75 2757.42 3044.36 2744.5 3044.36 2757.42 3066.75 2770.35" fill="#833f0c"/><polygon points="3223.46 2666.94 3223.46 2679.87 3066.75 2770.35 3066.75 2757.42 3223.46 2666.94" fill="#974811"/><polygon points="3089.14 2770.35 3245.85 2679.87 3268.24 2692.79 3111.52 2783.27 3089.14 2770.35" fill="#b35417"/><polygon points="3111.52 2796.2 3111.52 2783.27 3089.14 2770.35 3089.14 2783.27 3111.52 2796.2" fill="#833f0c"/><polygon points="3268.24 2692.79 3268.24 2705.72 3111.52 2796.2 3111.52 2783.27 3268.24 2692.79" fill="#974811"/><polygon points="3234.66 2725.11 3257.05 2712.18 3257.05 2699.26 3234.66 2712.18 3234.66 2725.11" fill="#9ca3a7"/><polygon points="3055.55 2621.7 3055.55 2608.78 3234.66 2712.18 3234.66 2725.11 3055.55 2621.7" fill="#7e8386"/><polygon points="3257.05 2699.26 3077.94 2595.85 3055.55 2608.78 3234.66 2712.18 3257.05 2699.26" fill="#b8c0c6"/><polygon points="2954.81 2679.87 2954.81 2666.94 3133.91 2770.35 3133.91 2783.27 2954.81 2679.87" fill="#7e8386"/><polygon points="3156.3 2770.35 3133.91 2783.27 3133.91 2770.35 3156.3 2757.42 3156.3 2770.35" fill="#9ca3a7"/><polygon points="2954.81 2666.94 2977.2 2654.02 3156.3 2757.42 3133.91 2770.35 2954.81 2666.94" fill="#b8c0c6"/><polygon points="3133.91 2796.2 3290.63 2705.72 3313.02 2718.64 3156.3 2809.12 3133.91 2796.2" fill="#b35417"/><polygon points="3156.3 2822.05 3156.3 2809.12 3133.91 2796.2 3133.91 2809.12 3156.3 2822.05" fill="#833f0c"/><polygon points="3313.02 2718.64 3313.02 2731.57 3156.3 2822.05 3156.3 2809.12 3313.02 2718.64" fill="#974811"/><polygon points="3178.69 2822.05 3335.41 2731.57 3357.79 2744.5 3201.08 2834.98 3178.69 2822.05" fill="#b35417"/><polygon points="3201.08 2847.9 3201.08 2834.98 3178.69 2822.05 3178.69 2834.98 3201.08 2847.9" fill="#833f0c"/><polygon points="3357.79 2744.5 3357.79 2757.42 3201.08 2847.9 3201.08 2834.98 3357.79 2744.5" fill="#974811"/><polygon points="3223.47 2847.9 3380.18 2757.42 3402.57 2770.35 3245.85 2860.83 3223.47 2847.9" fill="#b35417"/><polygon points="3245.85 2873.75 3245.85 2860.83 3223.47 2847.9 3223.47 2860.83 3245.85 2873.75" fill="#833f0c"/><polygon points="3402.57 2770.35 3402.57 2783.27 3245.85 2873.75 3245.85 2860.83 3402.57 2770.35" fill="#974811"/><polygon points="3268.24 2873.75 3424.96 2783.27 3447.35 2796.2 3290.63 2886.68 3268.24 2873.75" fill="#b35417"/><polygon points="3290.63 2899.61 3290.63 2886.68 3268.24 2873.75 3268.24 2886.68 3290.63 2899.61" fill="#833f0c"/><polygon points="3447.35 2796.2 3447.35 2809.12 3290.63 2899.61 3290.63 2886.68 3447.35 2796.2" fill="#974811"/><polygon points="3413.76 2828.51 3436.15 2815.59 3436.15 2802.66 3413.76 2815.59 3413.76 2828.51" fill="#9ca3a7"/><polygon points="3234.66 2725.11 3234.66 2712.18 3413.76 2815.59 3413.76 2828.51 3234.66 2725.11" fill="#7e8386"/><polygon points="3436.15 2802.66 3257.05 2699.26 3234.66 2712.18 3413.76 2815.59 3436.15 2802.66" fill="#b8c0c6"/><polygon points="3133.91 2783.27 3133.91 2770.35 3313.02 2873.75 3313.02 2886.68 3133.91 2783.27" fill="#7e8386"/><polygon points="3335.41 2873.75 3313.02 2886.68 3313.02 2873.75 3335.41 2860.83 3335.41 2873.75" fill="#9ca3a7"/><polygon points="3133.91 2770.35 3156.3 2757.42 3335.41 2860.83 3313.02 2873.75 3133.91 2770.35" fill="#b8c0c6"/><polygon points="3313.02 2899.61 3469.73 2809.12 3492.12 2822.05 3335.41 2912.53 3313.02 2899.61" fill="#b35417"/><polygon points="3335.41 2925.46 3335.41 2912.53 3313.02 2899.61 3313.02 2912.53 3335.41 2925.46" fill="#833f0c"/><polygon points="3492.12 2822.05 3492.12 2834.98 3335.41 2925.46 3335.41 2912.53 3492.12 2822.05" fill="#974811"/><polygon points="3357.79 2925.46 3514.51 2834.98 3536.9 2847.9 3380.18 2938.38 3357.79 2925.46" fill="#b35417"/><polygon points="3380.18 2951.31 3380.18 2938.38 3357.79 2925.46 3357.79 2938.38 3380.18 2951.31" fill="#833f0c"/><polygon points="3536.9 2847.9 3536.9 2860.83 3380.18 2951.31 3380.18 2938.38 3536.9 2847.9" fill="#974811"/><polygon points="3402.57 2951.31 3559.29 2860.83 3581.67 2873.75 3424.96 2964.23 3402.57 2951.31" fill="#b35417"/><polygon points="3424.96 2977.16 3424.96 2964.23 3402.57 2951.31 3402.57 2964.23 3424.96 2977.16" fill="#833f0c"/><polygon points="3581.67 2873.75 3581.67 2886.68 3424.96 2977.16 3424.96 2964.23 3581.67 2873.75" fill="#974811"/><polygon points="3447.35 2977.16 3604.06 2886.68 3626.45 2899.61 3469.73 2990.09 3447.35 2977.16" fill="#b35417"/><polygon points="3469.73 3003.01 3469.73 2990.09 3447.35 2977.16 3447.35 2990.09 3469.73 3003.01" fill="#833f0c"/><polygon points="3626.45 2899.61 3626.45 2912.53 3469.73 3003.01 3469.73 2990.09 3626.45 2899.61" fill="#974811"/><polygon points="3592.87 2931.92 3615.26 2918.99 3615.26 2906.07 3592.87 2918.99 3592.87 2931.92" fill="#9ca3a7"/><polygon points="3413.76 2828.51 3413.76 2815.59 3592.87 2918.99 3592.87 2931.92 3413.76 2828.51" fill="#7e8386"/><polygon points="3615.26 2906.07 3436.15 2802.66 3413.76 2815.59 3592.87 2918.99 3615.26 2906.07" fill="#b8c0c6"/><polygon points="3313.02 2886.68 3313.02 2873.75 3492.12 2977.16 3492.12 2990.09 3313.02 2886.68" fill="#7e8386"/><polygon points="3514.51 2977.16 3492.12 2990.09 3492.12 2977.16 3514.51 2964.23 3514.51 2977.16" fill="#9ca3a7"/><polygon points="3313.02 2873.75 3335.41 2860.83 3514.51 2964.23 3492.12 2977.16 3313.02 2873.75" fill="#b8c0c6"/><polygon points="3492.12 3003.01 3648.84 2912.53 3671.23 2925.46 3514.51 3015.94 3492.12 3003.01" fill="#b35417"/><polygon points="3514.51 3028.86 3514.51 3015.94 3492.12 3003.01 3492.12 3015.94 3514.51 3028.86" fill="#833f0c"/><polygon points="3671.23 2925.46 3671.23 2938.38 3514.51 3028.86 3514.51 3015.94 3671.23 2925.46" fill="#974811"/><polygon points="3536.9 3028.86 3693.61 2938.38 3716 2951.31 3559.29 3041.79 3536.9 3028.86" fill="#b35417"/><polygon points="3559.29 3054.71 3559.29 3041.79 3536.9 3028.86 3536.9 3041.79 3559.29 3054.71" fill="#833f0c"/><polygon points="3716 2951.31 3716 2964.23 3559.29 3054.71 3559.29 3041.79 3716 2951.31" fill="#974811"/><polygon points="3581.67 3054.71 3738.39 2964.23 3760.78 2977.16 3604.06 3067.64 3581.67 3054.71" fill="#b35417"/><polygon points="3604.06 3080.57 3604.06 3067.64 3581.67 3054.71 3581.67 3067.64 3604.06 3080.57" fill="#833f0c"/><polygon points="3760.78 2977.16 3760.78 2990.09 3604.06 3080.57 3604.06 3067.64 3760.78 2977.16" fill="#974811"/><polygon points="3626.45 3080.57 3783.17 2990.09 3805.55 3003.01 3648.84 3093.49 3626.45 3080.57" fill="#b35417"/><polygon points="3648.84 3106.42 3648.84 3093.49 3626.45 3080.57 3626.45 3093.49 3648.84 3106.42" fill="#833f0c"/><polygon points="3805.55 3003.01 3805.55 3015.94 3648.84 3106.42 3648.84 3093.49 3805.55 3003.01" fill="#974811"/><polygon points="3771.97 3035.33 3794.36 3022.4 3794.36 3009.47 3771.97 3022.4 3771.97 3035.33" fill="#9ca3a7"/><polygon points="3592.87 2931.92 3592.87 2918.99 3771.97 3022.4 3771.97 3035.33 3592.87 2931.92" fill="#7e8386"/><polygon points="3794.36 3009.47 3615.26 2906.07 3592.87 2918.99 3771.97 3022.4 3794.36 3009.47" fill="#b8c0c6"/><polygon points="3492.12 2990.09 3492.12 2977.16 3671.23 3080.57 3671.23 3093.49 3492.12 2990.09" fill="#7e8386"/><polygon points="3693.61 3080.57 3671.23 3093.49 3671.23 3080.57 3693.61 3067.64 3693.61 3080.57" fill="#9ca3a7"/><polygon points="3492.12 2977.16 3514.51 2964.23 3693.61 3067.64 3671.23 3080.57 3492.12 2977.16" fill="#b8c0c6"/><polygon points="3671.23 3106.42 3827.94 3015.94 3850.33 3028.86 3693.61 3119.34 3671.23 3106.42" fill="#b35417"/><polygon points="3693.61 3132.27 3693.61 3119.34 3671.23 3106.42 3671.23 3119.34 3693.61 3132.27" fill="#833f0c"/><polygon points="3850.33 3028.86 3850.33 3041.79 3693.61 3132.27 3693.61 3119.34 3850.33 3028.86" fill="#974811"/><polygon points="3716 3132.27 3872.72 3041.79 3895.11 3054.71 3738.39 3145.19 3716 3132.27" fill="#b35417"/><polygon points="3738.39 3158.12 3738.39 3145.19 3716 3132.27 3716 3145.19 3738.39 3158.12" fill="#833f0c"/><polygon points="3895.11 3054.71 3895.11 3067.64 3738.39 3158.12 3738.39 3145.19 3895.11 3054.71" fill="#974811"/><polygon points="3760.78 3158.12 3917.49 3067.64 3939.88 3080.57 3783.17 3171.05 3760.78 3158.12" fill="#b35417"/><polygon points="3783.17 3183.97 3783.17 3171.05 3760.78 3158.12 3760.78 3171.05 3783.17 3183.97" fill="#833f0c"/><polygon points="3939.88 3080.57 3939.88 3093.49 3783.17 3183.97 3783.17 3171.05 3939.88 3080.57" fill="#974811"/><polygon points="3805.55 3183.97 3962.27 3093.49 3984.66 3106.42 3827.94 3196.9 3805.55 3183.97" fill="#b35417"/><polygon points="3827.94 3209.82 3827.94 3196.9 3805.55 3183.97 3805.55 3196.9 3827.94 3209.82" fill="#833f0c"/><polygon points="3984.66 3106.42 3984.66 3119.34 3827.94 3209.82 3827.94 3196.9 3984.66 3106.42" fill="#974811"/><polygon points="3951.08 3138.73 3973.46 3125.81 3973.46 3112.88 3951.08 3125.81 3951.08 3138.73" fill="#9ca3a7"/><polygon points="3771.97 3035.33 3771.97 3022.4 3951.08 3125.81 3951.08 3138.73 3771.97 3035.33" fill="#7e8386"/><polygon points="3973.46 3112.88 3794.36 3009.47 3771.97 3022.4 3951.08 3125.81 3973.46 3112.88" fill="#b8c0c6"/><polygon points="3671.23 3093.49 3671.23 3080.57 3850.33 3183.97 3850.33 3196.9 3671.23 3093.49" fill="#7e8386"/><polygon points="3872.72 3183.97 3850.33 3196.9 3850.33 3183.97 3872.72 3171.05 3872.72 3183.97" fill="#9ca3a7"/><polygon points="3671.23 3080.57 3693.61 3067.64 3872.72 3171.05 3850.33 3183.97 3671.23 3080.57" fill="#b8c0c6"/><polygon points="3850.33 3209.82 4007.05 3119.34 4029.44 3132.27 3872.72 3222.75 3850.33 3209.82" fill="#b35417"/><polygon points="3872.72 3235.67 3872.72 3222.75 3850.33 3209.82 3850.33 3222.75 3872.72 3235.67" fill="#833f0c"/><polygon points="4029.44 3132.27 4029.44 3145.19 3872.72 3235.67 3872.72 3222.75 4029.44 3132.27" fill="#974811"/><polygon points="3895.11 3235.67 4051.82 3145.19 4074.21 3158.12 3917.49 3248.6 3895.11 3235.67" fill="#b35417"/><polygon points="3917.49 3261.53 3917.49 3248.6 3895.11 3235.67 3895.11 3248.6 3917.49 3261.53" fill="#833f0c"/><polygon points="4074.21 3158.12 4074.21 3171.05 3917.49 3261.53 3917.49 3248.6 4074.21 3158.12" fill="#974811"/><polygon points="3939.88 3261.53 4096.6 3171.05 4118.99 3183.97 3962.27 3274.45 3939.88 3261.53" fill="#b35417"/><polygon points="3962.27 3287.38 3962.27 3274.45 3939.88 3261.53 3939.88 3274.45 3962.27 3287.38" fill="#833f0c"/><polygon points="4118.99 3183.97 4118.99 3196.9 3962.27 3287.38 3962.27 3274.45 4118.99 3183.97" fill="#974811"/><polygon points="3984.66 3287.38 4141.38 3196.9 4163.76 3209.82 4007.05 3300.3 3984.66 3287.38" fill="#b35417"/><polygon points="4007.05 3313.23 4007.05 3300.3 3984.66 3287.38 3984.66 3300.3 4007.05 3313.23" fill="#833f0c"/><polygon points="4163.76 3209.82 4163.76 3222.75 4007.05 3313.23 4007.05 3300.3 4163.76 3209.82" fill="#974811"/><polygon points="4130.18 3242.14 4152.57 3229.21 4152.57 3216.29 4130.18 3229.21 4130.18 3242.14" fill="#9ca3a7"/><polygon points="3951.08 3138.73 3951.08 3125.81 4130.18 3229.21 4130.18 3242.14 3951.08 3138.73" fill="#7e8386"/><polygon points="4152.57 3216.29 3973.46 3112.88 3951.08 3125.81 4130.18 3229.21 4152.57 3216.29" fill="#b8c0c6"/><polygon points="3850.33 3196.9 3850.33 3183.97 4029.44 3287.38 4029.44 3300.3 3850.33 3196.9" fill="#7e8386"/><polygon points="4051.82 3287.38 4029.44 3300.3 4029.44 3287.38 4051.82 3274.45 4051.82 3287.38" fill="#9ca3a7"/><polygon points="3850.33 3183.97 3872.72 3171.05 4051.82 3274.45 4029.44 3287.38 3850.33 3183.97" fill="#b8c0c6"/></g><g id="GameStation"><polygon id="WallSide" points="3324.21 2479.52 3346.6 2466.59 3346.6 2130.52 3324.21 2143.45 3324.21 2479.52" fill="#e0d2df"/><g id="Bot"><polygon points="2048.09 1936.64 2227.2 1833.23 2249.58 1846.16 2070.48 1949.56 2048.09 1936.64" fill="#cec2ce"/><polygon points="2070.48 1962.49 2048.09 1949.56 2048.09 1936.64 2070.48 1949.56 2070.48 1962.49" fill="#d7cad6"/><polygon points="2249.58 1833.23 2070.48 1936.64 3145.11 2557.07 3324.21 2453.67 2249.58 1833.23" fill="#e9dae7"/><polygon points="3145.11 2582.92 3145.11 2557.07 3324.21 2453.67 3324.21 2479.52 3145.11 2582.92" fill="#e0d2df"/><polygon points="3145.11 2582.92 3145.11 2557.07 2070.48 1936.64 2070.48 1962.49 3145.11 2582.92" fill="#d7cad6"/><polygon points="3145.11 2570 3324.21 2466.59 3357.79 2485.98 3178.69 2589.39 3145.11 2570" fill="#e9dae7"/><polygon points="3178.69 2602.31 3178.69 2589.39 3145.11 2570 3145.11 2582.92 3178.69 2602.31" fill="#d7cad6"/><polygon points="3357.79 2485.98 3178.69 2589.39 3178.69 2602.31 3357.79 2498.91 3357.79 2485.98" fill="#e0d2df"/></g><polygon id="Wall" points="2249.58 1833.23 2249.58 1523.01 3324.21 2143.45 3324.21 2453.67 2249.58 1833.23" fill="#cec2ce"/><g id="StationDeco"><g id="Seat"><polygon points="2227.2 1872.01 2227.2 1846.16 2316.75 1897.86 2316.75 1923.71 2305.55 1917.25 2305.55 1904.32 2238.39 1865.55 2238.39 1878.47 2227.2 1872.01" fill="#626a6e"/><polygon points="2361.52 1897.86 2316.75 1923.71 2316.75 1897.86 2361.52 1872.01 2361.52 1897.86" fill="#575e62"/><polygon points="2227.2 1846.16 2316.75 1897.86 2361.52 1872.01 2271.97 1820.31 2227.2 1846.16" fill="#6d767a"/><polygon points="2238.39 1878.47 2249.58 1872.01 2238.39 1865.55 2238.39 1878.47" fill="#4c5356"/></g><g id="Seat-2"><polygon points="2540.63 2052.97 2540.63 2027.12 2630.18 2078.82 2630.18 2104.67 2618.99 2098.21 2618.99 2085.28 2551.82 2046.51 2551.82 2059.43 2540.63 2052.97" fill="#626a6e"/><polygon points="2674.96 2078.82 2630.18 2104.67 2630.18 2078.82 2674.96 2052.97 2674.96 2078.82" fill="#575e62"/><polygon points="2540.63 2027.12 2630.18 2078.82 2674.96 2052.97 2585.41 2001.27 2540.63 2027.12" fill="#6d767a"/><polygon points="2551.82 2059.43 2563.02 2052.97 2551.82 2046.51 2551.82 2059.43" fill="#4c5356"/></g><g id="Seat-3"><polygon points="2854.06 2233.93 2854.06 2208.08 2943.61 2259.78 2943.61 2285.63 2932.42 2279.17 2932.42 2266.24 2865.26 2227.47 2865.26 2240.39 2854.06 2233.93" fill="#626a6e"/><polygon points="2988.39 2259.78 2943.61 2285.63 2943.61 2259.78 2988.39 2233.93 2988.39 2259.78" fill="#575e62"/><polygon points="2854.06 2208.08 2943.61 2259.78 2988.39 2233.93 2898.84 2182.23 2854.06 2208.08" fill="#6d767a"/><polygon points="2865.26 2240.39 2876.45 2233.93 2865.26 2227.47 2865.26 2240.39" fill="#4c5356"/></g><g id="Seat-4"><polygon points="3167.49 2414.89 3167.49 2389.04 3257.05 2440.74 3257.05 2466.59 3245.85 2460.13 3245.85 2447.2 3178.69 2408.43 3178.69 2421.35 3167.49 2414.89" fill="#626a6e"/><polygon points="3301.82 2440.74 3257.05 2466.59 3257.05 2440.74 3301.82 2414.89 3301.82 2440.74" fill="#575e62"/><polygon points="3167.49 2389.04 3257.05 2440.74 3301.82 2414.89 3212.27 2363.19 3167.49 2389.04" fill="#6d767a"/><polygon points="3178.69 2421.35 3189.88 2414.89 3178.69 2408.43 3178.69 2421.35" fill="#4c5356"/></g><g id="Machine"><polygon points="2820.48 2162.84 2775.7 2188.69 2775.7 2059.43 2820.48 2033.58 2820.48 2162.84" fill="#575e62"/><polygon points="2730.93 2136.99 2764.51 2156.37 2764.51 2065.89 2730.93 2046.51 2730.93 2136.99" fill="#4c5356"/><polygon points="2730.93 2136.99 2719.73 2143.45 2764.51 2169.3 2764.51 2156.37 2730.93 2136.99" fill="#575e62"/><polygon points="2730.93 2046.51 2719.73 2040.04 2719.73 2143.45 2730.93 2136.99 2730.93 2046.51" fill="#4c5356"/><polygon points="2820.48 2033.58 2753.32 1994.8 2708.54 2020.65 2775.7 2059.43 2820.48 2033.58" fill="#6d767a"/><polygon points="2730.93 2033.53 2730.93 2059.38 2742.12 2065.84 2742.12 2039.99 2730.93 2033.53" fill="#5a97d1"/><polygon points="2742.12 2039.99 2742.12 2065.84 2753.32 2072.31 2753.32 2046.45 2742.12 2039.99" fill="#ea8dba"/><polygon points="2753.32 2046.45 2753.32 2072.31 2764.51 2078.77 2764.51 2052.92 2753.32 2046.45" fill="#e95320"/><polygon points="2730.93 2111.13 2730.93 2136.99 2742.12 2143.45 2742.12 2117.6 2730.93 2111.13" fill="#ed6d2f"/><polygon points="2730.93 2111.13 2742.12 2104.67 2753.32 2111.13 2742.12 2117.6 2730.93 2111.13" fill="#ed6d2f"/><polygon points="2753.32 2124.06 2753.32 2149.91 2764.51 2156.37 2764.51 2130.52 2753.32 2124.06" fill="#d7dc42"/><polygon points="2753.32 2124.06 2764.51 2117.6 2764.51 2130.52 2753.32 2124.06" fill="#d7dc42"/><polygon points="2742.12 2117.6 2742.12 2143.45 2753.32 2149.91 2753.32 2124.06 2742.12 2117.6" fill="#534696"/><polygon points="2742.12 2117.6 2753.32 2124.06 2764.51 2117.6 2753.32 2111.13 2742.12 2117.6" fill="#534696"/><polygon points="2730.93 2072.36 2730.93 2098.21 2742.12 2104.67 2742.12 2078.82 2730.93 2072.36" fill="#b81827"/><polygon points="2730.93 2072.31 2742.12 2065.84 2753.32 2072.31 2742.12 2078.77 2730.93 2072.31" fill="#b81827"/><polygon points="2753.32 2085.28 2753.32 2111.13 2764.51 2117.6 2764.51 2091.75 2753.32 2085.28" fill="#fab521"/><polygon points="2753.32 2085.23 2764.51 2078.77 2764.51 2091.69 2753.32 2085.23" fill="#fab521"/><polygon points="2742.12 2078.82 2742.12 2104.67 2753.32 2111.13 2753.32 2085.28 2742.12 2078.82" fill="#51521c"/><polygon points="2742.12 2078.77 2753.32 2085.23 2764.51 2078.77 2753.32 2072.31 2742.12 2078.77" fill="#51521c"/><polygon points="2775.7 2059.43 2708.54 2020.65 2708.54 2033.58 2775.7 2072.36 2775.7 2059.43" fill="#626a6e"/><polygon points="2775.7 2188.69 2708.54 2149.91 2708.54 2136.99 2775.7 2175.76 2775.7 2188.69" fill="#626a6e"/><polygon points="2775.7 2072.36 2775.7 2175.76 2764.51 2169.3 2764.51 2065.89 2775.7 2072.36" fill="#626a6e"/><polygon points="2708.54 2033.58 2708.54 2136.99 2719.73 2143.45 2719.73 2040.04 2708.54 2033.58" fill="#626a6e"/></g><g id="Pot"><polygon points="3033.17 2337.34 3033.17 2311.48 3077.94 2337.34 3077.94 2363.19 3033.17 2337.34" fill="#158e30"/><polygon points="3122.72 2337.34 3077.94 2363.19 3077.94 2337.34 3122.72 2311.48 3122.72 2337.34" fill="#14822c"/><polygon points="3133.91 2305.02 3133.91 2292.09 3077.94 2324.41 3077.94 2337.34 3133.91 2305.02" fill="#158e30"/><polygon points="3077.94 2324.41 3077.94 2337.34 3021.97 2305.02 3021.97 2292.09 3077.94 2324.41" fill="#159a34"/><polygon points="3021.97 2292.09 3077.94 2259.78 3089.14 2266.24 3033.17 2298.56 3021.97 2292.09" fill="#13a538"/><polygon points="3077.94 2324.41 3066.75 2317.95 3122.72 2285.63 3133.91 2292.09 3077.94 2324.41" fill="#13a538"/><polygon points="3033.17 2298.56 3044.36 2292.09 3077.94 2311.48 3066.75 2317.95 3033.17 2298.56" fill="#13a538"/><polygon points="3089.14 2266.24 3077.94 2272.71 3111.52 2292.09 3122.72 2285.63 3089.14 2266.24" fill="#13a538"/><polygon points="3044.36 2292.09 3077.94 2272.71 3077.94 2311.48 3044.36 2292.09" fill="#14822c"/><polygon points="3111.52 2292.09 3077.94 2311.48 3077.94 2272.71 3111.52 2292.09" fill="#158e30"/></g><g id="Pot-2"><polygon points="2406.3 1975.41 2406.3 1949.56 2451.08 1975.41 2451.08 2001.27 2406.3 1975.41" fill="#158e30"/><polygon points="2495.85 1975.41 2451.08 2001.27 2451.08 1975.41 2495.85 1949.56 2495.85 1975.41" fill="#14822c"/><polygon points="2507.05 1943.1 2507.05 1930.17 2451.08 1962.49 2451.08 1975.41 2507.05 1943.1" fill="#158e30"/><polygon points="2451.08 1962.49 2451.08 1975.41 2395.11 1943.1 2395.11 1930.17 2451.08 1962.49" fill="#159a34"/><polygon points="2395.11 1930.17 2451.08 1897.86 2462.27 1904.32 2406.3 1936.64 2395.11 1930.17" fill="#13a538"/><polygon points="2451.08 1962.49 2439.88 1956.03 2495.85 1923.71 2507.05 1930.17 2451.08 1962.49" fill="#13a538"/><polygon points="2406.3 1936.64 2417.49 1930.17 2451.08 1949.56 2439.88 1956.03 2406.3 1936.64" fill="#13a538"/><polygon points="2462.27 1904.32 2451.08 1910.79 2484.66 1930.17 2495.85 1923.71 2462.27 1904.32" fill="#13a538"/><polygon points="2417.49 1930.17 2451.08 1910.79 2451.08 1949.56 2417.49 1930.17" fill="#14822c"/><polygon points="2484.66 1930.17 2451.08 1949.56 2451.08 1910.79 2484.66 1930.17" fill="#158e30"/></g></g><g id="Top"><polygon points="3145.11 2246.85 3346.6 2130.52 3346.6 2104.67 3145.11 2221 3145.11 2246.85" fill="#623909"/><polygon points="3145.11 2221 3145.11 2246.85 2070.48 1626.42 2070.48 1600.57 3145.11 2221" fill="#71420e"/><polygon points="2070.48 1600.57 2070.48 1613.49 2081.67 1619.96 2081.67 1607.03 2070.48 1600.57" fill="#158e30"/><polygon points="2092.87 1626.42 2092.87 1613.49 2115.26 1626.42 2115.26 1639.34 2092.87 1626.42" fill="#158e30"/><polygon points="2126.45 1645.81 2126.45 1632.88 2137.64 1639.34 2137.64 1652.27 2126.45 1645.81" fill="#158e30"/><polygon points="2148.84 1658.73 2148.84 1645.81 2160.03 1652.27 2160.03 1665.2 2148.84 1658.73" fill="#158e30"/><polygon points="2171.23 1671.66 2171.23 1658.73 2193.61 1671.66 2193.61 1684.58 2171.23 1671.66" fill="#158e30"/><polyline points="2216 1697.51 2216 1684.58 2238.39 1697.51 2238.39 1710.44" fill="#158e30"/><polygon points="2249.58 1703.97 2249.58 1716.9 2260.78 1723.36 2260.78 1710.44 2249.58 1703.97" fill="#158e30"/><polygon points="2271.97 1729.83 2271.97 1716.9 2294.36 1729.83 2294.36 1742.75 2271.97 1729.83" fill="#158e30"/><polygon points="2305.55 1749.21 2305.55 1736.29 2316.75 1742.75 2316.75 1755.68 2305.55 1749.21" fill="#158e30"/><polygon points="2327.94 1762.14 2327.94 1749.21 2339.14 1755.68 2339.14 1768.6 2327.94 1762.14" fill="#158e30"/><polygon points="2350.33 1775.07 2350.33 1762.14 2372.72 1775.07 2372.72 1787.99 2350.33 1775.07" fill="#158e30"/><polyline points="2395.11 1800.92 2395.11 1787.99 2417.49 1800.92 2417.49 1813.84" fill="#158e30"/><polygon points="2428.69 1807.38 2428.69 1820.31 2439.88 1826.77 2439.88 1813.84 2428.69 1807.38" fill="#158e30"/><polygon points="2451.08 1833.23 2451.08 1820.31 2473.46 1833.23 2473.46 1846.16 2451.08 1833.23" fill="#158e30"/><polygon points="2484.66 1852.62 2484.66 1839.69 2495.85 1846.16 2495.85 1859.08 2484.66 1852.62" fill="#158e30"/><polygon points="2507.05 1865.55 2507.05 1852.62 2518.24 1859.08 2518.24 1872.01 2507.05 1865.55" fill="#158e30"/><polygon points="2529.44 1878.47 2529.44 1865.55 2551.82 1878.47 2551.82 1891.4 2529.44 1878.47" fill="#158e30"/><polyline points="2574.21 1904.32 2574.21 1891.4 2596.6 1904.32 2596.6 1917.25" fill="#158e30"/><polygon points="2607.79 1910.79 2607.79 1923.71 2618.99 1930.17 2618.99 1917.25 2607.79 1910.79" fill="#158e30"/><polygon points="2630.18 1936.64 2630.18 1923.71 2652.57 1936.64 2652.57 1949.56 2630.18 1936.64" fill="#158e30"/><polygon points="2663.76 1956.03 2663.76 1943.1 2674.96 1949.56 2674.96 1962.49 2663.76 1956.03" fill="#158e30"/><polygon points="2686.15 1968.95 2686.15 1956.03 2697.35 1962.49 2697.35 1975.41 2686.15 1968.95" fill="#158e30"/><polygon points="2708.54 1981.88 2708.54 1968.95 2730.93 1981.88 2730.93 1994.8 2708.54 1981.88" fill="#158e30"/><polyline points="2753.32 2007.73 2753.32 1994.8 2775.7 2007.73 2775.7 2020.65" fill="#158e30"/><polygon points="2786.9 2014.19 2786.9 2027.12 2798.09 2033.58 2798.09 2020.65 2786.9 2014.19" fill="#158e30"/><polygon points="2809.29 2040.04 2809.29 2027.12 2831.67 2040.04 2831.67 2052.97 2809.29 2040.04" fill="#158e30"/><polygon points="2842.87 2059.43 2842.87 2046.51 2854.06 2052.97 2854.06 2065.89 2842.87 2059.43" fill="#158e30"/><polygon points="2865.26 2072.36 2865.26 2059.43 2876.45 2065.89 2876.45 2078.82 2865.26 2072.36" fill="#158e30"/><polygon points="2887.64 2085.28 2887.64 2072.36 2910.03 2085.28 2910.03 2098.21 2887.64 2085.28" fill="#158e30"/><polyline points="2932.42 2111.13 2932.42 2098.21 2954.81 2111.13 2954.81 2124.06" fill="#158e30"/><polygon points="2966 2117.6 2966 2130.52 2977.2 2136.99 2977.2 2124.06 2966 2117.6" fill="#158e30"/><polygon points="2988.39 2143.45 2988.39 2130.52 3010.78 2143.45 3010.78 2156.37 2988.39 2143.45" fill="#158e30"/><polygon points="3021.97 2162.84 3021.97 2149.91 3033.17 2156.37 3033.17 2169.3 3021.97 2162.84" fill="#158e30"/><polygon points="3044.36 2175.76 3044.36 2162.84 3055.55 2169.3 3055.55 2182.23 3044.36 2175.76" fill="#158e30"/><polygon points="3066.75 2188.69 3066.75 2175.76 3089.14 2188.69 3089.14 2201.61 3066.75 2188.69" fill="#158e30"/><polyline points="3111.52 2214.54 3111.52 2201.61 3133.91 2214.54 3133.91 2227.47" fill="#158e30"/><polygon points="3178.69 2214.54 3178.69 2201.61 3201.08 2188.69 3201.08 2201.61 3178.69 2214.54" fill="#14822c"/><polygon points="3223.46 2175.76 3223.46 2188.69 3234.66 2182.23 3234.66 2169.3 3223.46 2175.76" fill="#14822c"/><polygon points="3245.85 2175.76 3245.85 2162.84 3257.05 2156.37 3257.05 2169.3 3245.85 2175.76" fill="#14822c"/><polygon points="3279.44 2156.37 3279.44 2143.45 3301.82 2130.52 3301.82 2143.45 3279.44 2156.37" fill="#14822c"/><polygon points="3313.02 2136.99 3313.02 2124.06 3324.21 2117.6 3324.21 2130.52 3313.02 2136.99" fill="#14822c"/><polygon points="3335.41 2124.06 3335.41 2111.13 3346.6 2104.67 3346.6 2117.6 3335.41 2124.06" fill="#14822c"/><polygon points="3156.3 2214.54 3156.3 2227.47 3167.49 2221 3167.49 2208.08 3156.3 2214.54" fill="#14822c"/><polygon points="3346.6 2104.67 3145.11 2221 2070.48 1600.57 2271.97 1484.24 3346.6 2104.67" fill="#159a34"/></g><g id="Pokebola"><polygon points="2630.18 1846.16 2630.18 1807.38 2719.73 1859.08 2719.73 1897.86 2630.18 1846.16" fill="#e3e3e3"/><polygon points="2809.29 1846.16 2719.73 1897.86 2719.73 1859.08 2809.29 1807.53 2809.29 1846.16" fill="#c6c6c6"/><polygon points="2809.29 1781.53 2809.29 1742.75 2719.73 1794.45 2719.73 1833.23 2809.29 1781.53" fill="#ae0f0a"/><polygon points="2630.18 1742.75 2719.73 1794.45 2719.73 1833.23 2630.18 1781.53 2630.18 1742.75" fill="#c90c0f"/><polygon points="2809.29 1742.75 2719.73 1794.45 2630.18 1742.75 2719.73 1691.05 2809.29 1742.75" fill="#e30613"/><polygon points="2630.18 1781.53 2630.18 1807.38 2719.73 1859.08 2719.73 1833.23 2630.18 1781.53" fill="#4a4a49"/><polygon points="2809.29 1781.53 2809.29 1807.53 2719.73 1859.08 2719.73 1833.23 2809.29 1781.53" fill="#3c3c3b"/><polygon points="2663.76 1800.92 2663.76 1826.77 2686.15 1839.69 2686.15 1813.84 2663.76 1800.92" fill="#fff"/></g><g id="Camada_15"><polygon points="2742.12 1884.93 2786.9 1910.79 2786.9 1897.86 2742.12 1872.01 2742.12 1884.93" fill="#d20a11"/><polygon points="2798.09 1904.32 2786.9 1910.79 2786.9 1897.86 2798.09 1891.4 2798.09 1904.32" fill="#c00d0d"/><polygon points="2820.48 1891.4 2831.67 1884.93 2831.67 1872.01 2820.48 1878.47 2820.48 1891.4" fill="#c00d0d"/><polygon points="2775.7 1865.55 2820.48 1891.4 2820.48 1878.47 2775.7 1852.62 2775.7 1865.55" fill="#ae0f0a"/><polygon points="2742.12 1872.01 2741.87 1807.53 2775.7 1826.77 2775.7 1891.4 2742.12 1872.01" fill="#d20a11"/><polygon points="2820.48 1865.55 2775.7 1891.4 2775.7 1826.77 2820.48 1800.92 2820.48 1865.55" fill="#c00d0d"/><polygon points="2831.67 1872.01 2820.48 1865.55 2809.29 1872.01 2820.48 1878.47 2831.67 1872.01" fill="#e30613"/><polygon points="2798.09 1891.4 2786.9 1884.93 2775.7 1891.4 2786.9 1897.86 2798.09 1891.4" fill="#e30613"/><polygon points="2741.87 1807.53 2786.9 1781.53 2820.48 1800.92 2775.7 1826.77 2741.87 1807.53" fill="#e30613"/><polygon points="2775.7 1839.69 2820.48 1813.84 2820.48 1839.69 2775.7 1865.55 2775.7 1839.69" fill="#ededed"/><polygon points="2764.51 1833.23 2764.51 1859.08 2775.7 1865.55 2775.7 1839.69 2764.51 1833.23" fill="#fff"/></g><g id="Camada_16"><polygon points="2966 2052.97 3010.78 2078.82 3010.78 2027.12 2966 2001.27 2966 2052.97" fill="#ededed"/><polygon points="3055.55 2052.97 3010.78 2078.82 3010.78 2027.12 3055.55 2001.27 3055.55 2052.97" fill="#dadada"/><polygon points="2966 2001.27 3010.78 2027.12 3055.55 2001.27 3010.78 1975.41 2966 2001.27" fill="#fff"/><polygon points="3033.17 2040.04 3033.17 2027.12 3044.36 2033.58 3044.36 1994.8 3055.55 2001.27 3055.55 2052.97 3033.17 2040.04" fill="#ededed"/><polygon points="3066.75 1994.8 3055.55 2001.27 3055.55 2052.97 3066.75 2046.51 3066.75 1994.8" fill="#dadada"/><polygon points="3044.36 1994.8 3055.55 2001.27 3066.75 1994.8 3055.55 1988.34 3044.36 1994.8" fill="#fff"/><polygon points="2971.6 2017.38 2982.79 2023.84 2982.79 2049.69 2971.6 2043.23 2971.6 2017.38" fill="#3c3c3b"/><polygon points="2993.99 2056.2 2993.99 2030.35 3005.18 2036.81 3005.18 2062.66 2993.99 2056.2" fill="#3c3c3b"/><polygon points="2988.39 1962.49 2977.2 1956.03 2977.2 1994.8 2988.39 1988.34 2988.39 1975.41 2988.39 1962.49" fill="#ededed"/><polygon points="2977.2 1956.03 2988.39 1962.49 2999.58 1956.03 2988.39 1949.56 2977.2 1956.03" fill="#fff"/><polygon points="2988.39 1988.34 2988.39 1962.49 2999.58 1956.03 2999.58 1981.88 2988.39 1988.34" fill="#c6c6c6"/><polygon points="3033.17 2027.12 3044.36 2033.58 3044.36 2020.65 3033.17 2027.12" fill="#c6c6c6"/></g><g id="Camada_17"><polygon points="2540.63 1755.68 2495.85 1729.82 2495.85 1678.12 2540.63 1703.97 2540.63 1755.68" fill="#cdcc00"/><polygon points="2585.41 1729.82 2540.63 1755.68 2540.63 1703.97 2585.41 1678.12 2585.41 1729.82" fill="#bcbc00"/><polygon points="2495.85 1678.12 2540.63 1703.97 2585.41 1678.12 2540.63 1652.27 2495.85 1678.12" fill="#dedc00"/><polygon points="2529.44 1678.12 2529.44 1665.2 2518.24 1658.73 2518.24 1645.81 2540.63 1658.73 2540.63 1671.66 2540.63 1684.58 2529.44 1678.12" fill="#3c3c3b"/><polygon points="2540.63 1658.73 2551.82 1652.27 2551.82 1678.12 2540.63 1684.58 2540.63 1658.73" fill="#2e2d2c"/><polygon points="2518.24 1645.81 2540.63 1658.73 2551.82 1652.27 2529.44 1639.34 2518.24 1645.81" fill="#4a4a49"/><polygon points="2551.82 1710.44 2551.82 1736.29 2563.02 1742.75 2563.02 1716.9 2551.82 1710.44" fill="#3c3c3b"/><polygon points="2574.21 1736.29 2563.02 1742.75 2563.02 1716.9 2574.21 1710.44 2574.21 1736.29" fill="#2e2d2c"/><polygon points="2551.82 1710.44 2563.02 1716.9 2574.21 1710.44 2563.02 1703.97 2551.82 1710.44" fill="#4a4a49"/><polygon points="2530.16 1716.48 2530.16 1723.78 2523.84 1720.13 2523.84 1712.83 2530.16 1716.48" fill="#2e2d2c"/><polygon points="2512.64 1706.1 2512.64 1713.32 2506.39 1709.71 2506.39 1702.48 2512.64 1706.1" fill="#2e2d2c"/><polygon points="2523.84 1726.59 2523.84 1732.77 2535.03 1739.52 2535.03 1733.06 2523.84 1726.59" fill="#e5bccc"/><polygon points="2501.45 1713.32 2501.45 1719.5 2512.64 1726.25 2512.64 1719.79 2501.45 1713.32" fill="#e5bccc"/><polygon points="2540.63 1820.31 2495.85 1794.45 2495.85 1742.75 2540.63 1768.6 2540.63 1820.31" fill="#8bb31d"/><polygon points="2585.41 1794.45 2540.63 1820.31 2540.63 1768.6 2585.41 1742.75 2585.41 1794.45" fill="#80a51b"/><polygon points="2495.85 1742.75 2540.63 1768.6 2585.41 1742.75 2540.63 1716.9 2495.85 1742.75" fill="#95c11f"/><polygon points="2529.44 1742.75 2529.44 1729.82 2518.24 1723.36 2518.24 1710.44 2540.63 1723.36 2540.63 1736.29 2540.63 1749.21 2529.44 1742.75" fill="#3c3c3b"/><polygon points="2540.63 1723.36 2551.82 1716.9 2551.82 1742.75 2540.63 1749.21 2540.63 1723.36" fill="#2e2d2c"/><polygon points="2518.24 1710.44 2540.63 1723.36 2551.82 1716.9 2529.44 1703.97 2518.24 1710.44" fill="#4a4a49"/><polygon points="2551.82 1775.07 2551.82 1800.92 2563.02 1807.38 2563.02 1781.53 2551.82 1775.07" fill="#3c3c3b"/><polygon points="2574.21 1800.92 2563.02 1807.38 2563.02 1781.53 2574.21 1775.07 2574.21 1800.92" fill="#2e2d2c"/><polygon points="2551.82 1775.07 2563.02 1781.53 2574.21 1775.07 2563.02 1768.6 2551.82 1775.07" fill="#4a4a49"/><polygon points="2530.16 1781.11 2530.16 1788.41 2523.84 1784.76 2523.84 1777.46 2530.16 1781.11" fill="#2e2d2c"/><polygon points="2512.64 1770.72 2512.64 1777.95 2506.39 1774.34 2506.39 1767.11 2512.64 1770.72" fill="#2e2d2c"/><polygon points="2523.84 1791.22 2523.84 1797.4 2535.03 1804.15 2535.03 1797.69 2523.84 1791.22" fill="#e5bccc"/><polygon points="2501.45 1777.95 2501.45 1784.13 2512.64 1790.88 2512.64 1784.41 2501.45 1777.95" fill="#e5bccc"/><polygon points="2439.88 1775.07 2395.11 1749.21 2395.11 1697.51 2439.88 1723.36 2439.88 1775.07" fill="#47adab"/><polygon points="2484.66 1749.21 2439.88 1775.07 2439.88 1723.36 2484.66 1697.51 2484.66 1749.21" fill="#42a09e"/><polygon points="2395.11 1697.51 2439.88 1723.36 2484.66 1697.51 2439.88 1671.66 2395.11 1697.51" fill="#4cbbb8"/><polygon points="2428.69 1697.51 2428.69 1684.58 2417.49 1678.12 2417.49 1665.2 2439.88 1678.12 2439.88 1691.05 2439.88 1703.97 2428.69 1697.51" fill="#3c3c3b"/><polygon points="2439.88 1678.12 2451.08 1671.66 2451.08 1697.51 2439.88 1703.97 2439.88 1678.12" fill="#2e2d2c"/><polygon points="2417.49 1665.2 2439.88 1678.12 2451.08 1671.66 2428.69 1658.73 2417.49 1665.2" fill="#4a4a49"/><polygon points="2451.08 1729.82 2451.08 1755.68 2462.27 1762.14 2462.27 1736.29 2451.08 1729.82" fill="#3c3c3b"/><polygon points="2473.46 1755.68 2462.27 1762.14 2462.27 1736.29 2473.46 1729.82 2473.46 1755.68" fill="#2e2d2c"/><polygon points="2451.08 1729.82 2462.27 1736.29 2473.46 1729.82 2462.27 1723.36 2451.08 1729.82" fill="#4a4a49"/><polygon points="2429.41 1735.87 2429.41 1743.17 2423.09 1739.52 2423.09 1732.22 2429.41 1735.87" fill="#2e2d2c"/><polygon points="2411.9 1725.48 2411.9 1732.71 2405.64 1729.1 2405.64 1721.87 2411.9 1725.48" fill="#2e2d2c"/><polygon points="2423.09 1745.98 2423.09 1752.16 2434.29 1758.91 2434.29 1752.44 2423.09 1745.98" fill="#e5bccc"/><polygon points="2400.7 1732.71 2400.7 1738.89 2411.9 1745.64 2411.9 1739.17 2400.7 1732.71" fill="#e5bccc"/></g><g id="Camada_19"><polygon points="2451.08 1329.13 2406.3 1354.98 2451.08 1380.83 2495.85 1354.98 2451.08 1329.13" fill="none"/><polyline points="2092.87 1329.13 2137.64 1354.98 2092.87 1380.83 2092.87 1380.83 2271.97 1484.24 2451.08 1380.83 2406.3 1354.98 2451.08 1329.13 2271.97 1225.72" fill="#159a34"/><polygon points="2227.2 1613.49 2227.2 1510.09 2271.97 1484.24 2271.97 1639.34 2227.2 1613.49" fill="#71420e"/><polygon points="2316.75 1613.49 2271.97 1639.34 2271.97 1484.24 2316.75 1510.09 2316.75 1613.49" fill="#623909"/><polygon points="2227.2 1406.68 2182.42 1380.83 2182.42 1277.42 2227.2 1303.28 2227.2 1406.68" fill="#158e30"/><polygon points="2271.97 1380.83 2227.2 1406.68 2227.2 1303.28 2271.97 1277.42 2271.97 1380.83" fill="#14822c"/><polygon points="2316.75 1303.28 2271.97 1277.42 2271.97 1380.83 2316.75 1406.68 2316.75 1303.28" fill="#158e30"/><polygon points="2316.75 1303.28 2316.75 1406.68 2361.52 1380.83 2361.52 1277.42 2316.75 1303.28" fill="#14822c"/><polygon points="2182.42 1277.42 2227.2 1251.57 2182.42 1225.72 2227.2 1199.87 2271.97 1225.72 2316.75 1199.87 2361.52 1225.72 2316.75 1251.57 2361.52 1277.42 2316.75 1303.28 2271.97 1277.42 2227.2 1303.28 2182.42 1277.42" fill="#159a34"/><polygon points="2361.52 1225.72 2361.52 1277.42 2316.75 1251.57 2361.52 1225.72" fill="#107527"/><polygon points="2182.42 1225.72 2182.42 1277.42 2227.2 1251.57 2182.42 1225.72" fill="#14822c"/><polygon points="2048.09 1406.68 2092.87 1380.83 2092.87 1432.53 2048.09 1406.68" fill="#14822c"/><polyline points="2137.64 1354.98 2092.87 1329.13 2092.87 1380.83" fill="#158e30"/><polygon points="2451.08 1380.83 2451.08 1432.53 2495.85 1406.68 2451.08 1380.83" fill="#107527"/><polyline points="2406.3 1354.98 2451.08 1329.13 2451.08 1380.83" fill="#14822c"/><polygon points="2092.87 1380.83 2092.87 1432.53 2048.09 1406.68 2048.09 1458.38 2227.2 1561.79 2227.2 1510.09 2271.97 1535.94 2271.97 1484.24 2092.87 1380.83" fill="#158e30"/><polygon points="2495.85 1406.68 2451.08 1432.53 2451.08 1380.83 2271.97 1484.24 2271.97 1535.94 2316.75 1510.09 2316.75 1561.79 2495.85 1458.38 2495.85 1406.68" fill="#14822c"/><polygon points="2271.97 1535.94 2316.75 1510.09 2316.75 1561.8 2271.97 1535.94" fill="#107527"/><polyline points="2227.2 1561.8 2271.97 1535.94 2227.2 1510.09" fill="#14822c"/></g><g id="Camada_18"><polygon points="2372.72 1619.96 2327.94 1594.1 2327.94 1542.4 2372.72 1568.25 2372.72 1619.96" fill="#ededed"/><polygon points="2417.5 1594.1 2372.72 1619.96 2372.72 1568.25 2417.5 1542.4 2417.5 1594.1" fill="#e3e3e3"/><polygon points="2327.94 1542.4 2372.72 1568.25 2417.5 1542.4 2372.72 1516.55 2327.94 1542.4" fill="#f6f6f6"/><polygon points="2327.94 1568.25 2316.75 1561.79 2316.75 1548.86 2327.94 1555.33 2327.94 1568.25" fill="#e30613"/><polygon points="2294.36 1535.94 2294.36 1523.01 2327.94 1542.4 2327.94 1555.33 2294.36 1535.94" fill="#d20a11"/><polygon points="2305.55 1516.55 2294.36 1523.01 2327.94 1542.4 2339.14 1535.94 2305.55 1516.55" fill="#e30613"/><polygon points="2316.75 1523.01 2327.94 1516.55 2350.33 1529.48 2339.14 1535.94 2316.75 1523.01" fill="#d20a11"/><polygon points="2316.75 1510.09 2327.94 1503.62 2361.52 1523.01 2350.33 1529.48 2316.75 1510.09" fill="#e30613"/><polygon points="2316.75 1523.01 2316.75 1510.09 2327.94 1516.55 2316.75 1523.01" fill="#c00d0d"/><polygon points="2327.94 1581.18 2305.56 1568.25 2305.55 1555.33 2327.94 1568.25 2327.94 1581.18" fill="#d20a11"/><polygon points="2316.75 1548.86 2305.55 1555.33 2316.75 1561.79 2316.75 1548.86" fill="#ae0f0a"/><polygon points="2383.91 1574.72 2383.91 1600.57 2406.3 1587.64 2406.3 1561.79 2383.91 1574.72" fill="#2e2d2c"/><polygon points="2327.94 1542.4 2350.33 1555.33 2350.33 1568.25 2339.14 1561.79 2339.14 1574.72 2361.52 1587.64 2361.52 1600.57 2350.33 1594.1 2350.33 1607.03 2327.94 1594.1 2327.94 1542.4" fill="#c90c0f"/><polygon points="2372.72 1516.55 2327.94 1542.4 2339.14 1548.86 2350.33 1542.4 2372.72 1555.33 2383.91 1548.86 2372.72 1542.4 2383.91 1535.94 2395.11 1542.4 2406.3 1535.94 2372.72 1516.55" fill="#e30613"/><polygon points="2361.52 1703.97 2316.75 1678.12 2316.75 1626.42 2361.52 1652.27 2361.52 1703.97" fill="#ededed"/><polygon points="2406.3 1678.12 2361.52 1703.97 2361.52 1652.27 2406.3 1626.42 2406.3 1678.12" fill="#e3e3e3"/><polygon points="2316.75 1626.42 2361.52 1652.27 2406.3 1626.42 2361.52 1600.57 2316.75 1626.42" fill="#f6f6f6"/><polygon points="2316.75 1652.27 2305.55 1645.81 2305.55 1632.88 2316.75 1639.34 2316.75 1652.27" fill="#e30613"/><polygon points="2283.17 1619.96 2283.17 1607.03 2316.75 1626.42 2316.75 1639.34 2283.17 1619.96" fill="#d20a11"/><polygon points="2294.36 1600.57 2283.17 1607.03 2316.75 1626.42 2327.94 1619.96 2294.36 1600.57" fill="#e30613"/><polygon points="2305.55 1607.03 2316.75 1600.57 2339.14 1613.49 2327.94 1619.96 2305.55 1607.03" fill="#d20a11"/><polygon points="2305.55 1594.1 2316.75 1587.64 2350.33 1607.03 2339.14 1613.49 2305.55 1594.1" fill="#e30613"/><polygon points="2305.55 1607.03 2305.55 1594.1 2316.75 1600.57 2305.55 1607.03" fill="#c00d0d"/><polygon points="2316.75 1665.2 2294.36 1652.27 2294.36 1639.34 2316.75 1652.27 2316.75 1665.2" fill="#d20a11"/><polygon points="2305.55 1632.88 2294.36 1639.34 2305.55 1645.81 2305.55 1632.88" fill="#ae0f0a"/><polygon points="2372.72 1658.73 2372.72 1684.58 2395.11 1671.66 2395.11 1645.81 2372.72 1658.73" fill="#2e2d2c"/><polygon points="2316.75 1626.42 2339.14 1639.34 2339.14 1652.27 2327.94 1645.81 2327.94 1658.73 2350.33 1671.66 2350.33 1684.58 2339.14 1678.12 2339.14 1691.05 2316.75 1678.12 2316.75 1626.42" fill="#c90c0f"/><polygon points="2361.52 1600.57 2316.75 1626.42 2327.94 1632.88 2339.14 1626.42 2361.52 1639.34 2372.72 1632.88 2361.52 1626.42 2372.72 1619.96 2383.91 1626.42 2395.11 1619.96 2361.52 1600.57" fill="#e30613"/></g><g id="Camada_21"><polygon points="3077.94 2104.67 3167.49 2156.37 3167.49 2052.97 3077.94 2001.27 3077.94 2104.67" fill="#b97f15"/><polygon points="3257.05 2104.67 3167.49 2156.37 3167.49 2052.97 3257.05 2001.27 3257.05 2104.67" fill="#ab7512"/><polygon points="3077.94 2001.27 3167.49 2052.97 3257.05 2001.27 3167.49 1949.56 3077.94 2001.27" fill="#c88817"/><polygon points="3077.94 2027.12 3167.49 2078.82 3167.49 2091.75 3077.94 2040.04 3077.94 2027.12" fill="#9b6b0f"/><polygon points="3257.05 2027.12 3167.49 2078.82 3167.49 2091.75 3257.05 2040.04 3257.05 2027.12" fill="#8b610c"/><polygon points="3133.91 2046.51 3122.72 2052.97 3122.72 2091.75 3133.91 2085.28 3133.91 2046.51" fill="#9ca3a7"/><polygon points="3100.33 2040.04 3111.52 2033.58 3133.91 2046.51 3122.72 2052.97 3100.33 2040.04" fill="#b8c0c6"/><polygon points="3100.33 2078.82 3100.33 2040.04 3122.72 2052.97 3122.72 2091.75 3100.33 2078.82" fill="#7e8386"/></g><g id="Camada_22"><polygon points="2781.17 1787.99 2769.98 1742.75 2781.17 1684.59 2792.37 1742.75 2781.17 1787.99" fill="#5ba62c"/><polygon points="2803.56 1736.29 2781.17 1684.59 2792.37 1742.75 2781.17 1787.99 2803.56 1736.29" fill="#549929"/><polyline points="2769.98 1742.75 2781.17 1684.59 2758.78 1736.29 2781.17 1787.99" fill="#62b22f"/></g><g id="Camada_23"><polygon points="2865.26 1852.62 2910.03 1878.47 2910.03 1826.77 2865.26 1800.92 2865.26 1852.62" fill="#eab500"/><polygon points="2954.81 1852.62 2910.03 1878.47 2910.03 1826.77 2954.81 1800.92 2954.81 1852.62" fill="#d6a700"/><polygon points="2865.26 1800.92 2910.03 1826.77 2954.81 1800.92 2910.03 1775.07 2865.26 1800.92" fill="#fdc300"/><polygon points="2878.45 1829.08 2884.58 1832.62 2884.58 1825.55 2890.71 1829.08 2890.71 1836.16 2884.58 1839.7 2884.58 1846.77 2890.71 1850.31 2890.71 1843.23 2896.83 1839.7 2896.83 1832.62 2890.71 1822.01 2884.58 1818.47 2878.45 1822.01 2878.45 1829.08" fill="#fff"/><polygon points="2884.58 1850.31 2884.58 1857.38 2890.71 1860.92 2890.71 1853.84 2884.58 1850.31" fill="#fff"/><polygon points="2905.16 1829.58 2905.16 1836.88 2898.84 1833.23 2898.84 1825.94 2905.16 1829.58" fill="#c19800"/><polygon points="2876.45 1813.01 2876.45 1820.31 2870.13 1816.66 2870.13 1809.36 2876.45 1813.01" fill="#c19800"/><polygon points="2905.16 1862.73 2905.16 1870.02 2898.84 1866.37 2898.84 1859.08 2905.16 1862.73" fill="#c19800"/><polygon points="2876.45 1846.19 2876.45 1853.48 2870.13 1849.83 2870.13 1842.54 2876.45 1846.19" fill="#c19800"/><polygon points="2941.61 1829.09 2935.48 1832.62 2935.48 1825.55 2929.36 1829.09 2929.36 1836.16 2935.48 1839.7 2935.48 1846.77 2929.36 1850.31 2929.36 1843.24 2923.23 1839.7 2923.23 1832.62 2929.36 1822.01 2935.48 1818.47 2941.61 1822.01 2941.61 1829.09" fill="#fff"/><polygon points="2935.48 1850.31 2935.48 1857.38 2929.36 1860.92 2929.36 1853.85 2935.48 1850.31" fill="#fff"/><polygon points="2914.91 1829.59 2914.91 1836.88 2921.23 1833.24 2921.23 1825.94 2914.91 1829.59" fill="#c19800"/><polygon points="2943.61 1813.01 2943.61 1820.31 2949.93 1816.66 2949.93 1809.37 2943.61 1813.01" fill="#c19800"/><polygon points="2914.91 1862.73 2914.91 1870.02 2921.23 1866.38 2921.23 1859.08 2914.91 1862.73" fill="#c19800"/><polygon points="2943.61 1846.19 2943.61 1853.49 2949.93 1849.84 2949.93 1842.54 2943.61 1846.19" fill="#c19800"/><image width="163" height="124" transform="translate(2828.66 1894.06)" xlink:href="GameStation-1.png"/></g></g></svg>