<?xml version="1.0" encoding="UTF-8"?><svg id="Map" xmlns="http://www.w3.org/2000/svg" viewBox="0 0 4993.32 4547.97"><g id="Rail"><polygon points="805.55 1451.92 962.27 1361.44 984.66 1374.37 827.94 1464.85 805.55 1451.92" fill="#b35417"/><polygon points="827.94 1477.77 827.94 1464.85 805.55 1451.92 805.55 1464.85 827.94 1477.77" fill="#833f0c"/><polygon points="984.66 1374.37 984.66 1387.29 827.94 1477.77 827.94 1464.85 984.66 1374.37" fill="#974811"/><polygon points="850.33 1477.77 1007.05 1387.29 1029.44 1400.22 872.72 1490.7 850.33 1477.77" fill="#b35417"/><polygon points="872.72 1503.62 872.72 1490.7 850.33 1477.77 850.33 1490.7 872.72 1503.62" fill="#833f0c"/><polygon points="1029.44 1400.22 1029.44 1413.14 872.72 1503.62 872.72 1490.7 1029.44 1400.22" fill="#974811"/><polygon points="895.11 1503.62 1051.82 1413.14 1074.21 1426.07 917.49 1516.55 895.11 1503.62" fill="#b35417"/><polygon points="917.49 1529.48 917.49 1516.55 895.11 1503.62 895.11 1516.55 917.49 1529.48" fill="#833f0c"/><polygon points="1074.21 1426.07 1074.21 1439 917.49 1529.48 917.49 1516.55 1074.21 1426.07" fill="#974811"/><polygon points="939.88 1529.48 1096.6 1439 1118.99 1451.92 962.27 1542.4 939.88 1529.48" fill="#b35417"/><polygon points="962.27 1555.33 962.27 1542.4 939.88 1529.48 939.88 1542.4 962.27 1555.33" fill="#833f0c"/><polygon points="1118.99 1451.92 1118.99 1464.85 962.27 1555.33 962.27 1542.4 1118.99 1451.92" fill="#974811"/><polygon points="1085.41 1484.24 1107.79 1471.31 1107.79 1458.38 1085.41 1471.31 1085.41 1484.24" fill="#9ca3a7"/><polygon points="906.3 1380.83 906.3 1367.9 1085.41 1471.31 1085.41 1484.24 906.3 1380.83" fill="#7e8386"/><polygon points="1107.79 1458.38 928.69 1354.98 906.3 1367.9 1085.41 1471.31 1107.79 1458.38" fill="#b8c0c6"/><polygon points="805.55 1439 805.55 1426.07 984.66 1529.48 984.66 1542.4 805.55 1439" fill="#7e8386"/><polygon points="1007.05 1529.48 984.66 1542.4 984.66 1529.48 1007.05 1516.55 1007.05 1529.48" fill="#9ca3a7"/><polygon points="805.55 1426.07 827.94 1413.14 1007.05 1516.55 984.66 1529.48 805.55 1426.07" fill="#b8c0c6"/><polygon points="984.66 1555.33 1141.38 1464.85 1163.76 1477.77 1007.05 1568.25 984.66 1555.33" fill="#b35417"/><polygon points="1007.05 1581.18 1007.05 1568.25 984.66 1555.33 984.66 1568.25 1007.05 1581.18" fill="#833f0c"/><polygon points="1163.76 1477.77 1163.76 1490.7 1007.05 1581.18 1007.05 1568.25 1163.76 1477.77" fill="#974811"/><polygon points="1029.44 1581.18 1186.15 1490.7 1208.54 1503.62 1051.82 1594.1 1029.44 1581.18" fill="#b35417"/><polygon points="1051.82 1607.03 1051.82 1594.1 1029.44 1581.18 1029.44 1594.1 1051.82 1607.03" fill="#833f0c"/><polygon points="1208.54 1503.62 1208.54 1516.55 1051.82 1607.03 1051.82 1594.1 1208.54 1503.62" fill="#974811"/><polygon points="1074.21 1607.03 1230.93 1516.55 1253.32 1529.48 1096.6 1619.96 1074.21 1607.03" fill="#b35417"/><polygon points="1096.6 1632.88 1096.6 1619.96 1074.21 1607.03 1074.21 1619.96 1096.6 1632.88" fill="#833f0c"/><polygon points="1253.32 1529.48 1253.32 1542.4 1096.6 1632.88 1096.6 1619.96 1253.32 1529.48" fill="#974811"/><polygon points="1118.99 1632.88 1275.7 1542.4 1298.09 1555.33 1141.38 1645.81 1118.99 1632.88" fill="#b35417"/><polygon points="1141.38 1658.73 1141.38 1645.81 1118.99 1632.88 1118.99 1645.81 1141.38 1658.73" fill="#833f0c"/><polygon points="1298.09 1555.33 1298.09 1568.25 1141.38 1658.73 1141.38 1645.81 1298.09 1555.33" fill="#974811"/><polygon points="1264.51 1587.64 1286.9 1574.72 1286.9 1561.79 1264.51 1574.72 1264.51 1587.64" fill="#9ca3a7"/><polygon points="1085.41 1484.24 1085.41 1471.31 1264.51 1574.72 1264.51 1587.64 1085.41 1484.24" fill="#7e8386"/><polygon points="1286.9 1561.79 1107.79 1458.38 1085.41 1471.31 1264.51 1574.72 1286.9 1561.79" fill="#b8c0c6"/><polygon points="984.66 1542.4 984.66 1529.48 1163.76 1632.88 1163.76 1645.81 984.66 1542.4" fill="#7e8386"/><polygon points="1186.15 1632.88 1163.76 1645.81 1163.76 1632.88 1186.15 1619.96 1186.15 1632.88" fill="#9ca3a7"/><polygon points="984.66 1529.48 1007.05 1516.55 1186.15 1619.96 1163.76 1632.88 984.66 1529.48" fill="#b8c0c6"/><polygon points="1163.76 1658.73 1320.48 1568.25 1342.87 1581.18 1186.15 1671.66 1163.76 1658.73" fill="#b35417"/><polygon points="1186.15 1684.58 1186.15 1671.66 1163.76 1658.73 1163.76 1671.66 1186.15 1684.58" fill="#833f0c"/><polygon points="1342.87 1581.18 1342.87 1594.1 1186.15 1684.58 1186.15 1671.66 1342.87 1581.18" fill="#974811"/><polygon points="1208.54 1684.58 1365.26 1594.1 1387.64 1607.03 1230.93 1697.51 1208.54 1684.58" fill="#b35417"/><polygon points="1230.93 1710.44 1230.93 1697.51 1208.54 1684.58 1208.54 1697.51 1230.93 1710.44" fill="#833f0c"/><polygon points="1387.64 1607.03 1387.64 1619.96 1230.93 1710.44 1230.93 1697.51 1387.64 1607.03" fill="#974811"/><polygon points="1253.32 1710.44 1410.03 1619.96 1432.42 1632.88 1275.7 1723.36 1253.32 1710.44" fill="#b35417"/><polygon points="1275.7 1736.29 1275.7 1723.36 1253.32 1710.44 1253.32 1723.36 1275.7 1736.29" fill="#833f0c"/><polygon points="1432.42 1632.88 1432.42 1645.81 1275.7 1736.29 1275.7 1723.36 1432.42 1632.88" fill="#974811"/><polygon points="1298.09 1736.29 1454.81 1645.81 1477.2 1658.73 1320.48 1749.21 1298.09 1736.29" fill="#b35417"/><polygon points="1320.48 1762.14 1320.48 1749.21 1298.09 1736.29 1298.09 1749.21 1320.48 1762.14" fill="#833f0c"/><polygon points="1477.2 1658.73 1477.2 1671.66 1320.48 1762.14 1320.48 1749.21 1477.2 1658.73" fill="#974811"/><polygon points="1443.61 1691.05 1466 1678.12 1466 1665.2 1443.61 1678.12 1443.61 1691.05" fill="#9ca3a7"/><polygon points="1264.51 1587.64 1264.51 1574.72 1443.61 1678.12 1443.61 1691.05 1264.51 1587.64" fill="#7e8386"/><polygon points="1466 1665.2 1286.9 1561.79 1264.51 1574.72 1443.61 1678.12 1466 1665.2" fill="#b8c0c6"/><polygon points="1163.76 1645.81 1163.76 1632.88 1342.87 1736.29 1342.87 1749.21 1163.76 1645.81" fill="#7e8386"/><polygon points="1365.26 1736.29 1342.87 1749.21 1342.87 1736.29 1365.26 1723.36 1365.26 1736.29" fill="#9ca3a7"/><polygon points="1163.76 1632.88 1186.15 1619.96 1365.26 1723.36 1342.87 1736.29 1163.76 1632.88" fill="#b8c0c6"/><polygon points="1342.87 1762.14 1499.58 1671.66 1521.97 1684.58 1365.26 1775.07 1342.87 1762.14" fill="#b35417"/><polygon points="1365.26 1787.99 1365.26 1775.07 1342.87 1762.14 1342.87 1775.07 1365.26 1787.99" fill="#833f0c"/><polygon points="1521.97 1684.58 1521.97 1697.51 1365.26 1787.99 1365.26 1775.07 1521.97 1684.58" fill="#974811"/><polygon points="1387.64 1787.99 1544.36 1697.51 1566.75 1710.44 1410.03 1800.92 1387.64 1787.99" fill="#b35417"/><polygon points="1410.03 1813.84 1410.03 1800.92 1387.64 1787.99 1387.64 1800.92 1410.03 1813.84" fill="#833f0c"/><polygon points="1566.75 1710.44 1566.75 1723.36 1410.03 1813.84 1410.03 1800.92 1566.75 1710.44" fill="#974811"/><polygon points="1432.42 1813.84 1589.14 1723.36 1611.52 1736.29 1454.81 1826.77 1432.42 1813.84" fill="#b35417"/><polygon points="1454.81 1839.69 1454.81 1826.77 1432.42 1813.84 1432.42 1826.77 1454.81 1839.69" fill="#833f0c"/><polygon points="1611.52 1736.29 1611.52 1749.21 1454.81 1839.69 1454.81 1826.77 1611.52 1736.29" fill="#974811"/><polygon points="1477.2 1839.69 1633.91 1749.21 1656.3 1762.14 1499.58 1852.62 1477.2 1839.69" fill="#b35417"/><polygon points="1499.58 1865.55 1499.58 1852.62 1477.2 1839.69 1477.2 1852.62 1499.58 1865.55" fill="#833f0c"/><polygon points="1656.3 1762.14 1656.3 1775.07 1499.58 1865.55 1499.58 1852.62 1656.3 1762.14" fill="#974811"/><polygon points="1622.72 1794.45 1645.11 1781.53 1645.11 1768.6 1622.72 1781.53 1622.72 1794.45" fill="#9ca3a7"/><polygon points="1443.61 1691.05 1443.61 1678.12 1622.72 1781.53 1622.72 1794.45 1443.61 1691.05" fill="#7e8386"/><polygon points="1645.11 1768.6 1466 1665.2 1443.61 1678.12 1622.72 1781.53 1645.11 1768.6" fill="#b8c0c6"/><polygon points="1342.87 1749.21 1342.87 1736.29 1521.97 1839.69 1521.97 1852.62 1342.87 1749.21" fill="#7e8386"/><polygon points="1544.36 1839.69 1521.97 1852.62 1521.97 1839.69 1544.36 1826.77 1544.36 1839.69" fill="#9ca3a7"/><polygon points="1342.87 1736.29 1365.26 1723.36 1544.36 1826.77 1521.97 1839.69 1342.87 1736.29" fill="#b8c0c6"/><polygon points="1521.97 1865.55 1678.69 1775.07 1701.08 1787.99 1544.36 1878.47 1521.97 1865.55" fill="#b35417"/><polygon points="1544.36 1891.4 1544.36 1878.47 1521.97 1865.55 1521.97 1878.47 1544.36 1891.4" fill="#833f0c"/><polygon points="1701.08 1787.99 1701.08 1800.92 1544.36 1891.4 1544.36 1878.47 1701.08 1787.99" fill="#974811"/><polygon points="1566.75 1891.4 1723.46 1800.92 1745.85 1813.84 1589.14 1904.32 1566.75 1891.4" fill="#b35417"/><polygon points="1589.14 1917.25 1589.14 1904.32 1566.75 1891.4 1566.75 1904.32 1589.14 1917.25" fill="#833f0c"/><polygon points="1745.85 1813.84 1745.85 1826.77 1589.14 1917.25 1589.14 1904.32 1745.85 1813.84" fill="#974811"/><polygon points="1611.52 1917.25 1768.24 1826.77 1790.63 1839.69 1633.91 1930.17 1611.52 1917.25" fill="#b35417"/><polygon points="1633.91 1943.1 1633.91 1930.17 1611.52 1917.25 1611.52 1930.17 1633.91 1943.1" fill="#833f0c"/><polygon points="1790.63 1839.69 1790.63 1852.62 1633.91 1943.1 1633.91 1930.17 1790.63 1839.69" fill="#974811"/><polygon points="1656.3 1943.1 1813.02 1852.62 1835.41 1865.55 1678.69 1956.03 1656.3 1943.1" fill="#b35417"/><polygon points="1678.69 1968.95 1678.69 1956.03 1656.3 1943.1 1656.3 1956.03 1678.69 1968.95" fill="#833f0c"/><polygon points="1835.41 1865.55 1835.41 1878.47 1678.69 1968.95 1678.69 1956.03 1835.41 1865.55" fill="#974811"/><polygon points="1801.82 1897.86 1824.21 1884.93 1824.21 1872.01 1801.82 1884.93 1801.82 1897.86" fill="#9ca3a7"/><polygon points="1622.72 1794.45 1622.72 1781.53 1801.82 1884.93 1801.82 1897.86 1622.72 1794.45" fill="#7e8386"/><polygon points="1824.21 1872.01 1645.11 1768.6 1622.72 1781.53 1801.82 1884.93 1824.21 1872.01" fill="#b8c0c6"/><polygon points="1521.97 1852.62 1521.97 1839.69 1701.08 1943.1 1701.08 1956.03 1521.97 1852.62" fill="#7e8386"/><polygon points="1723.46 1943.1 1701.08 1956.03 1701.08 1943.1 1723.46 1930.17 1723.46 1943.1" fill="#9ca3a7"/><polygon points="1521.97 1839.69 1544.36 1826.77 1723.46 1930.17 1701.08 1943.1 1521.97 1839.69" fill="#b8c0c6"/><polygon points="1701.08 1968.95 1857.79 1878.47 1880.18 1891.4 1723.46 1981.88 1701.08 1968.95" fill="#b35417"/><polygon points="1723.46 1994.8 1723.46 1981.88 1701.08 1968.95 1701.08 1981.88 1723.46 1994.8" fill="#833f0c"/><polygon points="1880.18 1891.4 1880.18 1904.32 1723.46 1994.8 1723.46 1981.88 1880.18 1891.4" fill="#974811"/><polygon points="1745.85 1994.8 1902.57 1904.32 1924.96 1917.25 1768.24 2007.73 1745.85 1994.8" fill="#b35417"/><polygon points="1768.24 2020.65 1768.24 2007.73 1745.85 1994.8 1745.85 2007.73 1768.24 2020.65" fill="#833f0c"/><polygon points="1924.96 1917.25 1924.96 1930.17 1768.24 2020.65 1768.24 2007.73 1924.96 1917.25" fill="#974811"/><polygon points="1790.63 2020.65 1947.35 1930.17 1969.73 1943.1 1813.02 2033.58 1790.63 2020.65" fill="#b35417"/><polygon points="1813.02 2046.51 1813.02 2033.58 1790.63 2020.65 1790.63 2033.58 1813.02 2046.51" fill="#833f0c"/><polygon points="1969.73 1943.1 1969.73 1956.03 1813.02 2046.51 1813.02 2033.58 1969.73 1943.1" fill="#974811"/><polygon points="1835.41 2046.51 1992.12 1956.03 2014.51 1968.95 1857.79 2059.43 1835.41 2046.51" fill="#b35417"/><polygon points="1857.79 2072.36 1857.79 2059.43 1835.41 2046.51 1835.41 2059.43 1857.79 2072.36" fill="#833f0c"/><polygon points="2014.51 1968.95 2014.51 1981.88 1857.79 2072.36 1857.79 2059.43 2014.51 1968.95" fill="#974811"/><polygon points="1980.93 2001.27 2003.32 1988.34 2003.32 1975.41 1980.93 1988.34 1980.93 2001.27" fill="#9ca3a7"/><polygon points="1801.82 1897.86 1801.82 1884.93 1980.93 1988.34 1980.93 2001.27 1801.82 1897.86" fill="#7e8386"/><polygon points="2003.32 1975.41 1824.21 1872.01 1801.82 1884.93 1980.93 1988.34 2003.32 1975.41" fill="#b8c0c6"/><polygon points="1701.08 1956.03 1701.08 1943.1 1880.18 2046.51 1880.18 2059.43 1701.08 1956.03" fill="#7e8386"/><polygon points="1902.57 2046.51 1880.18 2059.43 1880.18 2046.51 1902.57 2033.58 1902.57 2046.51" fill="#9ca3a7"/><polygon points="1701.08 1943.1 1723.46 1930.17 1902.57 2033.58 1880.18 2046.51 1701.08 1943.1" fill="#b8c0c6"/><polygon points="1880.18 2072.36 2036.9 1981.88 2059.29 1994.8 1902.57 2085.28 1880.18 2072.36" fill="#b35417"/><polygon points="1902.57 2098.21 1902.57 2085.28 1880.18 2072.36 1880.18 2085.28 1902.57 2098.21" fill="#833f0c"/><polygon points="2059.29 1994.8 2059.29 2007.73 1902.57 2098.21 1902.57 2085.28 2059.29 1994.8" fill="#974811"/><polygon points="1924.96 2098.21 2081.67 2007.73 2104.06 2020.65 1947.35 2111.13 1924.96 2098.21" fill="#b35417"/><polygon points="1947.35 2124.06 1947.35 2111.13 1924.96 2098.21 1924.96 2111.13 1947.35 2124.06" fill="#833f0c"/><polygon points="2104.06 2020.65 2104.06 2033.58 1947.35 2124.06 1947.35 2111.13 2104.06 2020.65" fill="#974811"/><polygon points="1969.73 2124.06 2126.45 2033.58 2148.84 2046.51 1992.12 2136.99 1969.73 2124.06" fill="#b35417"/><polygon points="1992.12 2149.91 1992.12 2136.99 1969.73 2124.06 1969.73 2136.99 1992.12 2149.91" fill="#833f0c"/><polygon points="2148.84 2046.51 2148.84 2059.43 1992.12 2149.91 1992.12 2136.99 2148.84 2046.51" fill="#974811"/><polygon points="2014.51 2149.91 2171.23 2059.43 2193.61 2072.36 2036.9 2162.84 2014.51 2149.91" fill="#b35417"/><polygon points="2036.9 2175.76 2036.9 2162.84 2014.51 2149.91 2014.51 2162.84 2036.9 2175.76" fill="#833f0c"/><polygon points="2193.61 2072.36 2193.61 2085.28 2036.9 2175.76 2036.9 2162.84 2193.61 2072.36" fill="#974811"/><polygon points="2160.03 2104.67 2182.42 2091.75 2182.42 2078.82 2160.03 2091.75 2160.03 2104.67" fill="#9ca3a7"/><polygon points="1980.93 2001.27 1980.93 1988.34 2160.03 2091.75 2160.03 2104.67 1980.93 2001.27" fill="#7e8386"/><polygon points="2182.42 2078.82 2003.32 1975.41 1980.93 1988.34 2160.03 2091.75 2182.42 2078.82" fill="#b8c0c6"/><polygon points="1880.18 2059.43 1880.18 2046.51 2059.29 2149.91 2059.29 2162.84 1880.18 2059.43" fill="#7e8386"/><polygon points="2081.67 2149.91 2059.29 2162.84 2059.29 2149.91 2081.67 2136.99 2081.67 2149.91" fill="#9ca3a7"/><polygon points="1880.18 2046.51 1902.57 2033.58 2081.67 2136.99 2059.29 2149.91 1880.18 2046.51" fill="#b8c0c6"/><polygon points="2059.29 2175.76 2216 2085.28 2238.39 2098.21 2081.67 2188.69 2059.29 2175.76" fill="#b35417"/><polygon points="2081.67 2201.61 2081.67 2188.69 2059.29 2175.76 2059.29 2188.69 2081.67 2201.61" fill="#833f0c"/><polygon points="2238.39 2098.21 2238.39 2111.13 2081.67 2201.61 2081.67 2188.69 2238.39 2098.21" fill="#974811"/><polygon points="2104.06 2201.61 2260.78 2111.13 2283.17 2124.06 2126.45 2214.54 2104.06 2201.61" fill="#b35417"/><polygon points="2126.45 2227.47 2126.45 2214.54 2104.06 2201.61 2104.06 2214.54 2126.45 2227.47" fill="#833f0c"/><polygon points="2283.17 2124.06 2283.17 2136.99 2126.45 2227.47 2126.45 2214.54 2283.17 2124.06" fill="#974811"/><polygon points="2148.84 2227.47 2305.55 2136.99 2327.94 2149.91 2171.23 2240.39 2148.84 2227.47" fill="#b35417"/><polygon points="2171.23 2253.32 2171.23 2240.39 2148.84 2227.47 2148.84 2240.39 2171.23 2253.32" fill="#833f0c"/><polygon points="2327.94 2149.91 2327.94 2162.84 2171.23 2253.32 2171.23 2240.39 2327.94 2149.91" fill="#974811"/><polygon points="2193.61 2253.32 2350.33 2162.84 2372.72 2175.76 2216 2266.24 2193.61 2253.32" fill="#b35417"/><polygon points="2216 2279.17 2216 2266.24 2193.61 2253.32 2193.61 2266.24 2216 2279.17" fill="#833f0c"/><polygon points="2372.72 2175.76 2372.72 2188.69 2216 2279.17 2216 2266.24 2372.72 2175.76" fill="#974811"/><polygon points="2339.14 2208.08 2361.52 2195.15 2361.52 2182.23 2339.14 2195.15 2339.14 2208.08" fill="#9ca3a7"/><polygon points="2160.03 2104.67 2160.03 2091.75 2339.14 2195.15 2339.14 2208.08 2160.03 2104.67" fill="#7e8386"/><polygon points="2361.52 2182.23 2182.42 2078.82 2160.03 2091.75 2339.14 2195.15 2361.52 2182.23" fill="#b8c0c6"/><polygon points="2059.29 2162.84 2059.29 2149.91 2238.39 2253.32 2238.39 2266.24 2059.29 2162.84" fill="#7e8386"/><polygon points="2260.78 2253.32 2238.39 2266.24 2238.39 2253.32 2260.78 2240.39 2260.78 2253.32" fill="#9ca3a7"/><polygon points="2059.29 2149.91 2081.67 2136.99 2260.78 2240.39 2238.39 2253.32 2059.29 2149.91" fill="#b8c0c6"/><polygon points="2238.39 2279.17 2395.11 2188.69 2417.49 2201.61 2260.78 2292.1 2238.39 2279.17" fill="#b35417"/><polygon points="2260.78 2305.02 2260.78 2292.1 2238.39 2279.17 2238.39 2292.1 2260.78 2305.02" fill="#833f0c"/><polygon points="2417.49 2201.61 2417.49 2214.54 2260.78 2305.02 2260.78 2292.1 2417.49 2201.61" fill="#974811"/><polygon points="2283.17 2305.02 2439.88 2214.54 2462.27 2227.47 2305.55 2317.95 2283.17 2305.02" fill="#b35417"/><polygon points="2305.55 2330.87 2305.55 2317.95 2283.17 2305.02 2283.17 2317.95 2305.55 2330.87" fill="#833f0c"/><polygon points="2462.27 2227.47 2462.27 2240.39 2305.55 2330.87 2305.55 2317.95 2462.27 2227.47" fill="#974811"/><polygon points="2327.94 2330.87 2484.66 2240.39 2507.05 2253.32 2350.33 2343.8 2327.94 2330.87" fill="#b35417"/><polygon points="2350.33 2356.72 2350.33 2343.8 2327.94 2330.87 2327.94 2343.8 2350.33 2356.72" fill="#833f0c"/><polygon points="2507.05 2253.32 2507.05 2266.24 2350.33 2356.72 2350.33 2343.8 2507.05 2253.32" fill="#974811"/><polygon points="2372.72 2356.72 2529.44 2266.24 2551.82 2279.17 2395.11 2369.65 2372.72 2356.72" fill="#b35417"/><polygon points="2395.11 2382.58 2395.11 2369.65 2372.72 2356.72 2372.72 2369.65 2395.11 2382.58" fill="#833f0c"/><polygon points="2551.82 2279.17 2551.82 2292.1 2395.11 2382.58 2395.11 2369.65 2551.82 2279.17" fill="#974811"/><polygon points="2518.24 2311.48 2540.63 2298.56 2540.63 2285.63 2518.24 2298.56 2518.24 2311.48" fill="#9ca3a7"/><polygon points="2339.14 2208.08 2339.14 2195.15 2518.24 2298.56 2518.24 2311.48 2339.14 2208.08" fill="#7e8386"/><polygon points="2540.63 2285.63 2361.52 2182.23 2339.14 2195.15 2518.24 2298.56 2540.63 2285.63" fill="#b8c0c6"/><polygon points="2238.39 2266.24 2238.39 2253.32 2417.49 2356.72 2417.49 2369.65 2238.39 2266.24" fill="#7e8386"/><polygon points="2439.88 2356.72 2417.49 2369.65 2417.49 2356.72 2439.88 2343.8 2439.88 2356.72" fill="#9ca3a7"/><polygon points="2238.39 2253.32 2260.78 2240.39 2439.88 2343.8 2417.49 2356.72 2238.39 2253.32" fill="#b8c0c6"/><polygon points="2417.49 2382.58 2574.21 2292.09 2596.6 2305.02 2439.88 2395.5 2417.49 2382.58" fill="#b35417"/><polygon points="2439.88 2408.43 2439.88 2395.5 2417.49 2382.58 2417.49 2395.5 2439.88 2408.43" fill="#833f0c"/><polygon points="2596.6 2305.02 2596.6 2317.95 2439.88 2408.43 2439.88 2395.5 2596.6 2305.02" fill="#974811"/><polygon points="2462.27 2408.43 2618.99 2317.95 2641.38 2330.87 2484.66 2421.35 2462.27 2408.43" fill="#b35417"/><polygon points="2484.66 2434.28 2484.66 2421.35 2462.27 2408.43 2462.27 2421.35 2484.66 2434.28" fill="#833f0c"/><polygon points="2641.38 2330.87 2641.38 2343.8 2484.66 2434.28 2484.66 2421.35 2641.38 2330.87" fill="#974811"/><polygon points="2507.05 2434.28 2663.76 2343.8 2686.15 2356.72 2529.44 2447.2 2507.05 2434.28" fill="#b35417"/><polygon points="2529.44 2460.13 2529.44 2447.2 2507.05 2434.28 2507.05 2447.2 2529.44 2460.13" fill="#833f0c"/><polygon points="2686.15 2356.72 2686.15 2369.65 2529.44 2460.13 2529.44 2447.2 2686.15 2356.72" fill="#974811"/><polygon points="2551.82 2460.13 2708.54 2369.65 2730.93 2382.58 2574.21 2473.06 2551.82 2460.13" fill="#b35417"/><polygon points="2574.21 2485.98 2574.21 2473.06 2551.82 2460.13 2551.82 2473.06 2574.21 2485.98" fill="#833f0c"/><polygon points="2730.93 2382.58 2730.93 2395.5 2574.21 2485.98 2574.21 2473.06 2730.93 2382.58" fill="#974811"/><polygon points="2697.35 2414.89 2719.73 2401.96 2719.73 2389.04 2697.35 2401.96 2697.35 2414.89" fill="#9ca3a7"/><polygon points="2518.24 2311.48 2518.24 2298.56 2697.35 2401.96 2697.35 2414.89 2518.24 2311.48" fill="#7e8386"/><polygon points="2719.73 2389.04 2540.63 2285.63 2518.24 2298.56 2697.35 2401.96 2719.73 2389.04" fill="#b8c0c6"/><polygon points="2417.49 2369.65 2417.49 2356.72 2596.6 2460.13 2596.6 2473.06 2417.49 2369.65" fill="#7e8386"/><polygon points="2618.99 2460.13 2596.6 2473.06 2596.6 2460.13 2618.99 2447.2 2618.99 2460.13" fill="#9ca3a7"/><polygon points="2417.49 2356.72 2439.88 2343.8 2618.99 2447.2 2596.6 2460.13 2417.49 2356.72" fill="#b8c0c6"/><polygon points="2596.6 2485.98 2753.32 2395.5 2775.7 2408.43 2618.99 2498.91 2596.6 2485.98" fill="#b35417"/><polygon points="2618.99 2511.83 2618.99 2498.91 2596.6 2485.98 2596.6 2498.91 2618.99 2511.83" fill="#833f0c"/><polygon points="2775.7 2408.43 2775.7 2421.35 2618.99 2511.83 2618.99 2498.91 2775.7 2408.43" fill="#974811"/><polygon points="2641.38 2511.83 2798.09 2421.35 2820.48 2434.28 2663.76 2524.76 2641.38 2511.83" fill="#b35417"/><polygon points="2663.76 2537.68 2663.76 2524.76 2641.38 2511.83 2641.38 2524.76 2663.76 2537.68" fill="#833f0c"/><polygon points="2820.48 2434.28 2820.48 2447.2 2663.76 2537.68 2663.76 2524.76 2820.48 2434.28" fill="#974811"/><polygon points="2686.15 2537.68 2842.87 2447.2 2865.26 2460.13 2708.54 2550.61 2686.15 2537.68" fill="#b35417"/><polygon points="2708.54 2563.54 2708.54 2550.61 2686.15 2537.68 2686.15 2550.61 2708.54 2563.54" fill="#833f0c"/><polygon points="2865.26 2460.13 2865.26 2473.06 2708.54 2563.54 2708.54 2550.61 2865.26 2460.13" fill="#974811"/><polygon points="2730.93 2563.54 2887.64 2473.06 2910.03 2485.98 2753.32 2576.46 2730.93 2563.54" fill="#b35417"/><polygon points="2753.32 2589.39 2753.32 2576.46 2730.93 2563.54 2730.93 2576.46 2753.32 2589.39" fill="#833f0c"/><polygon points="2910.03 2485.98 2910.03 2498.91 2753.32 2589.39 2753.32 2576.46 2910.03 2485.98" fill="#974811"/><polygon points="2876.45 2518.3 2898.84 2505.37 2898.84 2492.44 2876.45 2505.37 2876.45 2518.3" fill="#9ca3a7"/><polygon points="2697.35 2414.89 2697.35 2401.96 2876.45 2505.37 2876.45 2518.3 2697.35 2414.89" fill="#7e8386"/><polygon points="2898.84 2492.44 2719.73 2389.04 2697.35 2401.96 2876.45 2505.37 2898.84 2492.44" fill="#b8c0c6"/><polygon points="2596.6 2473.06 2596.6 2460.13 2775.7 2563.54 2775.7 2576.46 2596.6 2473.06" fill="#7e8386"/><polygon points="2798.09 2563.54 2775.7 2576.46 2775.7 2563.54 2798.09 2550.61 2798.09 2563.54" fill="#9ca3a7"/><polygon points="2596.6 2460.13 2618.99 2447.2 2798.09 2550.61 2775.7 2563.54 2596.6 2460.13" fill="#b8c0c6"/><polygon points="2775.7 2589.39 2932.42 2498.91 2954.81 2511.83 2798.09 2602.31 2775.7 2589.39" fill="#b35417"/><polygon points="2798.09 2615.24 2798.09 2602.31 2775.7 2589.39 2775.7 2602.31 2798.09 2615.24" fill="#833f0c"/><polygon points="2954.81 2511.83 2954.81 2524.76 2798.09 2615.24 2798.09 2602.31 2954.81 2511.83" fill="#974811"/><polygon points="2820.48 2615.24 2977.2 2524.76 2999.58 2537.68 2842.87 2628.16 2820.48 2615.24" fill="#b35417"/><polygon points="2842.87 2641.09 2842.87 2628.16 2820.48 2615.24 2820.48 2628.16 2842.87 2641.09" fill="#833f0c"/><polygon points="2999.58 2537.68 2999.58 2550.61 2842.87 2641.09 2842.87 2628.16 2999.58 2537.68" fill="#974811"/><polygon points="2865.26 2641.09 3021.97 2550.61 3044.36 2563.54 2887.64 2654.02 2865.26 2641.09" fill="#b35417"/><polygon points="2887.64 2666.94 2887.64 2654.02 2865.26 2641.09 2865.26 2654.02 2887.64 2666.94" fill="#833f0c"/><polygon points="3044.36 2563.54 3044.36 2576.46 2887.64 2666.94 2887.64 2654.02 3044.36 2563.54" fill="#974811"/><polygon points="2910.03 2666.94 3066.75 2576.46 3089.14 2589.39 2932.42 2679.87 2910.03 2666.94" fill="#b35417"/><polygon points="2932.42 2692.79 2932.42 2679.87 2910.03 2666.94 2910.03 2679.87 2932.42 2692.79" fill="#833f0c"/><polygon points="3089.14 2589.39 3089.14 2602.31 2932.42 2692.79 2932.42 2679.87 3089.14 2589.39" fill="#974811"/><polygon points="3055.55 2621.7 3077.94 2608.78 3077.94 2595.85 3055.55 2608.78 3055.55 2621.7" fill="#9ca3a7"/><polygon points="2876.45 2518.3 2876.45 2505.37 3055.55 2608.78 3055.55 2621.7 2876.45 2518.3" fill="#7e8386"/><polygon points="3077.94 2595.85 2898.84 2492.44 2876.45 2505.37 3055.55 2608.78 3077.94 2595.85" fill="#b8c0c6"/><polygon points="2775.7 2576.46 2775.7 2563.54 2954.81 2666.94 2954.81 2679.87 2775.7 2576.46" fill="#7e8386"/><polygon points="2977.2 2666.94 2954.81 2679.87 2954.81 2666.94 2977.2 2654.02 2977.2 2666.94" fill="#9ca3a7"/><polygon points="2775.7 2563.54 2798.09 2550.61 2977.2 2654.02 2954.81 2666.94 2775.7 2563.54" fill="#b8c0c6"/><polygon points="2954.81 2692.79 3111.52 2602.31 3133.91 2615.24 2977.2 2705.72 2954.81 2692.79" fill="#b35417"/><polygon points="2977.2 2718.64 2977.2 2705.72 2954.81 2692.79 2954.81 2705.72 2977.2 2718.64" fill="#833f0c"/><polygon points="3133.91 2615.24 3133.91 2628.16 2977.2 2718.64 2977.2 2705.72 3133.91 2615.24" fill="#974811"/><polygon points="2999.58 2718.64 3156.3 2628.16 3178.69 2641.09 3021.97 2731.57 2999.58 2718.64" fill="#b35417"/><polygon points="3021.97 2744.5 3021.97 2731.57 2999.58 2718.64 2999.58 2731.57 3021.97 2744.5" fill="#833f0c"/><polygon points="3178.69 2641.09 3178.69 2654.02 3021.97 2744.5 3021.97 2731.57 3178.69 2641.09" fill="#974811"/><polygon points="3044.36 2744.5 3201.08 2654.02 3223.46 2666.94 3066.75 2757.42 3044.36 2744.5" fill="#b35417"/><polygon points="3066.75 2770.35 3066.75 2757.42 3044.36 2744.5 3044.36 2757.42 3066.75 2770.35" fill="#833f0c"/><polygon points="3223.46 2666.94 3223.46 2679.87 3066.75 2770.35 3066.75 2757.42 3223.46 2666.94" fill="#974811"/><polygon points="3089.14 2770.35 3245.85 2679.87 3268.24 2692.79 3111.52 2783.27 3089.14 2770.35" fill="#b35417"/><polygon points="3111.52 2796.2 3111.52 2783.27 3089.14 2770.35 3089.14 2783.27 3111.52 2796.2" fill="#833f0c"/><polygon points="3268.24 2692.79 3268.24 2705.72 3111.52 2796.2 3111.52 2783.27 3268.24 2692.79" fill="#974811"/><polygon points="3234.66 2725.11 3257.05 2712.18 3257.05 2699.26 3234.66 2712.18 3234.66 2725.11" fill="#9ca3a7"/><polygon points="3055.55 2621.7 3055.55 2608.78 3234.66 2712.18 3234.66 2725.11 3055.55 2621.7" fill="#7e8386"/><polygon points="3257.05 2699.26 3077.94 2595.85 3055.55 2608.78 3234.66 2712.18 3257.05 2699.26" fill="#b8c0c6"/><polygon points="2954.81 2679.87 2954.81 2666.94 3133.91 2770.35 3133.91 2783.27 2954.81 2679.87" fill="#7e8386"/><polygon points="3156.3 2770.35 3133.91 2783.27 3133.91 2770.35 3156.3 2757.42 3156.3 2770.35" fill="#9ca3a7"/><polygon points="2954.81 2666.94 2977.2 2654.02 3156.3 2757.42 3133.91 2770.35 2954.81 2666.94" fill="#b8c0c6"/><polygon points="3133.91 2796.2 3290.63 2705.72 3313.02 2718.64 3156.3 2809.12 3133.91 2796.2" fill="#b35417"/><polygon points="3156.3 2822.05 3156.3 2809.12 3133.91 2796.2 3133.91 2809.12 3156.3 2822.05" fill="#833f0c"/><polygon points="3313.02 2718.64 3313.02 2731.57 3156.3 2822.05 3156.3 2809.12 3313.02 2718.64" fill="#974811"/><polygon points="3178.69 2822.05 3335.41 2731.57 3357.79 2744.5 3201.08 2834.98 3178.69 2822.05" fill="#b35417"/><polygon points="3201.08 2847.9 3201.08 2834.98 3178.69 2822.05 3178.69 2834.98 3201.08 2847.9" fill="#833f0c"/><polygon points="3357.79 2744.5 3357.79 2757.42 3201.08 2847.9 3201.08 2834.98 3357.79 2744.5" fill="#974811"/><polygon points="3223.47 2847.9 3380.18 2757.42 3402.57 2770.35 3245.85 2860.83 3223.47 2847.9" fill="#b35417"/><polygon points="3245.85 2873.75 3245.85 2860.83 3223.47 2847.9 3223.47 2860.83 3245.85 2873.75" fill="#833f0c"/><polygon points="3402.57 2770.35 3402.57 2783.27 3245.85 2873.75 3245.85 2860.83 3402.57 2770.35" fill="#974811"/><polygon points="3268.24 2873.75 3424.96 2783.27 3447.35 2796.2 3290.63 2886.68 3268.24 2873.75" fill="#b35417"/><polygon points="3290.63 2899.61 3290.63 2886.68 3268.24 2873.75 3268.24 2886.68 3290.63 2899.61" fill="#833f0c"/><polygon points="3447.35 2796.2 3447.35 2809.12 3290.63 2899.61 3290.63 2886.68 3447.35 2796.2" fill="#974811"/><polygon points="3413.76 2828.51 3436.15 2815.59 3436.15 2802.66 3413.76 2815.59 3413.76 2828.51" fill="#9ca3a7"/><polygon points="3234.66 2725.11 3234.66 2712.18 3413.76 2815.59 3413.76 2828.51 3234.66 2725.11" fill="#7e8386"/><polygon points="3436.15 2802.66 3257.05 2699.26 3234.66 2712.18 3413.76 2815.59 3436.15 2802.66" fill="#b8c0c6"/><polygon points="3133.91 2783.27 3133.91 2770.35 3313.02 2873.75 3313.02 2886.68 3133.91 2783.27" fill="#7e8386"/><polygon points="3335.41 2873.75 3313.02 2886.68 3313.02 2873.75 3335.41 2860.83 3335.41 2873.75" fill="#9ca3a7"/><polygon points="3133.91 2770.35 3156.3 2757.42 3335.41 2860.83 3313.02 2873.75 3133.91 2770.35" fill="#b8c0c6"/><polygon points="3313.02 2899.61 3469.73 2809.12 3492.12 2822.05 3335.41 2912.53 3313.02 2899.61" fill="#b35417"/><polygon points="3335.41 2925.46 3335.41 2912.53 3313.02 2899.61 3313.02 2912.53 3335.41 2925.46" fill="#833f0c"/><polygon points="3492.12 2822.05 3492.12 2834.98 3335.41 2925.46 3335.41 2912.53 3492.12 2822.05" fill="#974811"/><polygon points="3357.79 2925.46 3514.51 2834.98 3536.9 2847.9 3380.18 2938.38 3357.79 2925.46" fill="#b35417"/><polygon points="3380.18 2951.31 3380.18 2938.38 3357.79 2925.46 3357.79 2938.38 3380.18 2951.31" fill="#833f0c"/><polygon points="3536.9 2847.9 3536.9 2860.83 3380.18 2951.31 3380.18 2938.38 3536.9 2847.9" fill="#974811"/><polygon points="3402.57 2951.31 3559.29 2860.83 3581.67 2873.75 3424.96 2964.23 3402.57 2951.31" fill="#b35417"/><polygon points="3424.96 2977.16 3424.96 2964.23 3402.57 2951.31 3402.57 2964.23 3424.96 2977.16" fill="#833f0c"/><polygon points="3581.67 2873.75 3581.67 2886.68 3424.96 2977.16 3424.96 2964.23 3581.67 2873.75" fill="#974811"/><polygon points="3447.35 2977.16 3604.06 2886.68 3626.45 2899.61 3469.73 2990.09 3447.35 2977.16" fill="#b35417"/><polygon points="3469.73 3003.01 3469.73 2990.09 3447.35 2977.16 3447.35 2990.09 3469.73 3003.01" fill="#833f0c"/><polygon points="3626.45 2899.61 3626.45 2912.53 3469.73 3003.01 3469.73 2990.09 3626.45 2899.61" fill="#974811"/><polygon points="3592.87 2931.92 3615.26 2918.99 3615.26 2906.07 3592.87 2918.99 3592.87 2931.92" fill="#9ca3a7"/><polygon points="3413.76 2828.51 3413.76 2815.59 3592.87 2918.99 3592.87 2931.92 3413.76 2828.51" fill="#7e8386"/><polygon points="3615.26 2906.07 3436.15 2802.66 3413.76 2815.59 3592.87 2918.99 3615.26 2906.07" fill="#b8c0c6"/><polygon points="3313.02 2886.68 3313.02 2873.75 3492.12 2977.16 3492.12 2990.09 3313.02 2886.68" fill="#7e8386"/><polygon points="3514.51 2977.16 3492.12 2990.09 3492.12 2977.16 3514.51 2964.23 3514.51 2977.16" fill="#9ca3a7"/><polygon points="3313.02 2873.75 3335.41 2860.83 3514.51 2964.23 3492.12 2977.16 3313.02 2873.75" fill="#b8c0c6"/><polygon points="3492.12 3003.01 3648.84 2912.53 3671.23 2925.46 3514.51 3015.94 3492.12 3003.01" fill="#b35417"/><polygon points="3514.51 3028.86 3514.51 3015.94 3492.12 3003.01 3492.12 3015.94 3514.51 3028.86" fill="#833f0c"/><polygon points="3671.23 2925.46 3671.23 2938.38 3514.51 3028.86 3514.51 3015.94 3671.23 2925.46" fill="#974811"/><polygon points="3536.9 3028.86 3693.61 2938.38 3716 2951.31 3559.29 3041.79 3536.9 3028.86" fill="#b35417"/><polygon points="3559.29 3054.71 3559.29 3041.79 3536.9 3028.86 3536.9 3041.79 3559.29 3054.71" fill="#833f0c"/><polygon points="3716 2951.31 3716 2964.23 3559.29 3054.71 3559.29 3041.79 3716 2951.31" fill="#974811"/><polygon points="3581.67 3054.71 3738.39 2964.23 3760.78 2977.16 3604.06 3067.64 3581.67 3054.71" fill="#b35417"/><polygon points="3604.06 3080.57 3604.06 3067.64 3581.67 3054.71 3581.67 3067.64 3604.06 3080.57" fill="#833f0c"/><polygon points="3760.78 2977.16 3760.78 2990.09 3604.06 3080.57 3604.06 3067.64 3760.78 2977.16" fill="#974811"/><polygon points="3626.45 3080.57 3783.17 2990.09 3805.55 3003.01 3648.84 3093.49 3626.45 3080.57" fill="#b35417"/><polygon points="3648.84 3106.42 3648.84 3093.49 3626.45 3080.57 3626.45 3093.49 3648.84 3106.42" fill="#833f0c"/><polygon points="3805.55 3003.01 3805.55 3015.94 3648.84 3106.42 3648.84 3093.49 3805.55 3003.01" fill="#974811"/><polygon points="3771.97 3035.33 3794.36 3022.4 3794.36 3009.47 3771.97 3022.4 3771.97 3035.33" fill="#9ca3a7"/><polygon points="3592.87 2931.92 3592.87 2918.99 3771.97 3022.4 3771.97 3035.33 3592.87 2931.92" fill="#7e8386"/><polygon points="3794.36 3009.47 3615.26 2906.07 3592.87 2918.99 3771.97 3022.4 3794.36 3009.47" fill="#b8c0c6"/><polygon points="3492.12 2990.09 3492.12 2977.16 3671.23 3080.57 3671.23 3093.49 3492.12 2990.09" fill="#7e8386"/><polygon points="3693.61 3080.57 3671.23 3093.49 3671.23 3080.57 3693.61 3067.64 3693.61 3080.57" fill="#9ca3a7"/><polygon points="3492.12 2977.16 3514.51 2964.23 3693.61 3067.64 3671.23 3080.57 3492.12 2977.16" fill="#b8c0c6"/><polygon points="3671.23 3106.42 3827.94 3015.94 3850.33 3028.86 3693.61 3119.34 3671.23 3106.42" fill="#b35417"/><polygon points="3693.61 3132.27 3693.61 3119.34 3671.23 3106.42 3671.23 3119.34 3693.61 3132.27" fill="#833f0c"/><polygon points="3850.33 3028.86 3850.33 3041.79 3693.61 3132.27 3693.61 3119.34 3850.33 3028.86" fill="#974811"/><polygon points="3716 3132.27 3872.72 3041.79 3895.11 3054.71 3738.39 3145.19 3716 3132.27" fill="#b35417"/><polygon points="3738.39 3158.12 3738.39 3145.19 3716 3132.27 3716 3145.19 3738.39 3158.12" fill="#833f0c"/><polygon points="3895.11 3054.71 3895.11 3067.64 3738.39 3158.12 3738.39 3145.19 3895.11 3054.71" fill="#974811"/><polygon points="3760.78 3158.12 3917.49 3067.64 3939.88 3080.57 3783.17 3171.05 3760.78 3158.12" fill="#b35417"/><polygon points="3783.17 3183.97 3783.17 3171.05 3760.78 3158.12 3760.78 3171.05 3783.17 3183.97" fill="#833f0c"/><polygon points="3939.88 3080.57 3939.88 3093.49 3783.17 3183.97 3783.17 3171.05 3939.88 3080.57" fill="#974811"/><polygon points="3805.55 3183.97 3962.27 3093.49 3984.66 3106.42 3827.94 3196.9 3805.55 3183.97" fill="#b35417"/><polygon points="3827.94 3209.82 3827.94 3196.9 3805.55 3183.97 3805.55 3196.9 3827.94 3209.82" fill="#833f0c"/><polygon points="3984.66 3106.42 3984.66 3119.34 3827.94 3209.82 3827.94 3196.9 3984.66 3106.42" fill="#974811"/><polygon points="3951.08 3138.73 3973.46 3125.81 3973.46 3112.88 3951.08 3125.81 3951.08 3138.73" fill="#9ca3a7"/><polygon points="3771.97 3035.33 3771.97 3022.4 3951.08 3125.81 3951.08 3138.73 3771.97 3035.33" fill="#7e8386"/><polygon points="3973.46 3112.88 3794.36 3009.47 3771.97 3022.4 3951.08 3125.81 3973.46 3112.88" fill="#b8c0c6"/><polygon points="3671.23 3093.49 3671.23 3080.57 3850.33 3183.97 3850.33 3196.9 3671.23 3093.49" fill="#7e8386"/><polygon points="3872.72 3183.97 3850.33 3196.9 3850.33 3183.97 3872.72 3171.05 3872.72 3183.97" fill="#9ca3a7"/><polygon points="3671.23 3080.57 3693.61 3067.64 3872.72 3171.05 3850.33 3183.97 3671.23 3080.57" fill="#b8c0c6"/><polygon points="3850.33 3209.82 4007.05 3119.34 4029.44 3132.27 3872.72 3222.75 3850.33 3209.82" fill="#b35417"/><polygon points="3872.72 3235.67 3872.72 3222.75 3850.33 3209.82 3850.33 3222.75 3872.72 3235.67" fill="#833f0c"/><polygon points="4029.44 3132.27 4029.44 3145.19 3872.72 3235.67 3872.72 3222.75 4029.44 3132.27" fill="#974811"/><polygon points="3895.11 3235.67 4051.82 3145.19 4074.21 3158.12 3917.49 3248.6 3895.11 3235.67" fill="#b35417"/><polygon points="3917.49 3261.53 3917.49 3248.6 3895.11 3235.67 3895.11 3248.6 3917.49 3261.53" fill="#833f0c"/><polygon points="4074.21 3158.12 4074.21 3171.05 3917.49 3261.53 3917.49 3248.6 4074.21 3158.12" fill="#974811"/><polygon points="3939.88 3261.53 4096.6 3171.05 4118.99 3183.97 3962.27 3274.45 3939.88 3261.53" fill="#b35417"/><polygon points="3962.27 3287.38 3962.27 3274.45 3939.88 3261.53 3939.88 3274.45 3962.27 3287.38" fill="#833f0c"/><polygon points="4118.99 3183.97 4118.99 3196.9 3962.27 3287.38 3962.27 3274.45 4118.99 3183.97" fill="#974811"/><polygon points="3984.66 3287.38 4141.38 3196.9 4163.76 3209.82 4007.05 3300.3 3984.66 3287.38" fill="#b35417"/><polygon points="4007.05 3313.23 4007.05 3300.3 3984.66 3287.38 3984.66 3300.3 4007.05 3313.23" fill="#833f0c"/><polygon points="4163.76 3209.82 4163.76 3222.75 4007.05 3313.23 4007.05 3300.3 4163.76 3209.82" fill="#974811"/><polygon points="4130.18 3242.14 4152.57 3229.21 4152.57 3216.29 4130.18 3229.21 4130.18 3242.14" fill="#9ca3a7"/><polygon points="3951.08 3138.73 3951.08 3125.81 4130.18 3229.21 4130.18 3242.14 3951.08 3138.73" fill="#7e8386"/><polygon points="4152.57 3216.29 3973.46 3112.88 3951.08 3125.81 4130.18 3229.21 4152.57 3216.29" fill="#b8c0c6"/><polygon points="3850.33 3196.9 3850.33 3183.97 4029.44 3287.38 4029.44 3300.3 3850.33 3196.9" fill="#7e8386"/><polygon points="4051.82 3287.38 4029.44 3300.3 4029.44 3287.38 4051.82 3274.45 4051.82 3287.38" fill="#9ca3a7"/><polygon points="3850.33 3183.97 3872.72 3171.05 4051.82 3274.45 4029.44 3287.38 3850.33 3183.97" fill="#b8c0c6"/></g><g id="TecStation"><polygon id="WallSide" points="3324.21 2479.52 3346.6 2466.59 3346.6 2130.52 3324.21 2143.45 3324.21 2479.52" fill="#e0d2df"/><g id="Bot"><polygon points="2048.09 1936.64 2227.2 1833.23 2249.58 1846.16 2070.48 1949.56 2048.09 1936.64" fill="#cec2ce"/><polygon points="2070.48 1962.49 2048.09 1949.56 2048.09 1936.64 2070.48 1949.56 2070.48 1962.49" fill="#d7cad6"/><polygon points="2249.58 1833.23 2070.48 1936.64 3145.11 2557.07 3324.21 2453.67 2249.58 1833.23" fill="#e9dae7"/><polygon points="3145.11 2582.92 3145.11 2557.07 3324.21 2453.67 3324.21 2479.52 3145.11 2582.92" fill="#e0d2df"/><polygon points="3145.11 2582.92 3145.11 2557.07 2070.48 1936.64 2070.48 1962.49 3145.11 2582.92" fill="#d7cad6"/><polygon points="3145.11 2570 3324.21 2466.59 3357.79 2485.98 3178.69 2589.39 3145.11 2570" fill="#e9dae7"/><polygon points="3178.69 2602.31 3178.69 2589.39 3145.11 2570 3145.11 2582.92 3178.69 2602.31" fill="#d7cad6"/><polygon points="3357.79 2485.98 3178.69 2589.39 3178.69 2602.31 3357.79 2498.91 3357.79 2485.98" fill="#e0d2df"/></g><polygon id="Wall" points="2249.58 1833.23 2249.58 1523.01 3324.21 2143.45 3324.21 2453.67 2249.58 1833.23" fill="#cec2ce"/><g id="StationDeco"><g id="Seat"><polygon points="2227.2 1872.01 2227.2 1846.16 2316.75 1897.86 2316.75 1923.71 2305.55 1917.25 2305.55 1904.32 2238.39 1865.55 2238.39 1878.47 2227.2 1872.01" fill="#626a6e"/><polygon points="2361.52 1897.86 2316.75 1923.71 2316.75 1897.86 2361.52 1872.01 2361.52 1897.86" fill="#575e62"/><polygon points="2227.2 1846.16 2316.75 1897.86 2361.52 1872.01 2271.97 1820.31 2227.2 1846.16" fill="#6d767a"/><polygon points="2238.39 1878.47 2249.58 1872.01 2238.39 1865.55 2238.39 1878.47" fill="#4c5356"/></g><g id="Seat-2"><polygon points="2540.63 2052.97 2540.63 2027.12 2630.18 2078.82 2630.18 2104.67 2618.99 2098.21 2618.99 2085.28 2551.82 2046.51 2551.82 2059.43 2540.63 2052.97" fill="#626a6e"/><polygon points="2674.96 2078.82 2630.18 2104.67 2630.18 2078.82 2674.96 2052.97 2674.96 2078.82" fill="#575e62"/><polygon points="2540.63 2027.12 2630.18 2078.82 2674.96 2052.97 2585.41 2001.27 2540.63 2027.12" fill="#6d767a"/><polygon points="2551.82 2059.43 2563.02 2052.97 2551.82 2046.51 2551.82 2059.43" fill="#4c5356"/></g><g id="Seat-3"><polygon points="2854.06 2233.93 2854.06 2208.08 2943.61 2259.78 2943.61 2285.63 2932.42 2279.17 2932.42 2266.24 2865.26 2227.47 2865.26 2240.39 2854.06 2233.93" fill="#626a6e"/><polygon points="2988.39 2259.78 2943.61 2285.63 2943.61 2259.78 2988.39 2233.93 2988.39 2259.78" fill="#575e62"/><polygon points="2854.06 2208.08 2943.61 2259.78 2988.39 2233.93 2898.84 2182.23 2854.06 2208.08" fill="#6d767a"/><polygon points="2865.26 2240.39 2876.45 2233.93 2865.26 2227.47 2865.26 2240.39" fill="#4c5356"/></g><g id="Seat-4"><polygon points="3167.49 2414.89 3167.49 2389.04 3257.05 2440.74 3257.05 2466.59 3245.85 2460.13 3245.85 2447.2 3178.69 2408.43 3178.69 2421.35 3167.49 2414.89" fill="#626a6e"/><polygon points="3301.82 2440.74 3257.05 2466.59 3257.05 2440.74 3301.82 2414.89 3301.82 2440.74" fill="#575e62"/><polygon points="3167.49 2389.04 3257.05 2440.74 3301.82 2414.89 3212.27 2363.19 3167.49 2389.04" fill="#6d767a"/><polygon points="3178.69 2421.35 3189.88 2414.89 3178.69 2408.43 3178.69 2421.35" fill="#4c5356"/></g><g id="Machine"><polygon points="2820.48 2162.84 2775.7 2188.69 2775.7 2059.43 2820.48 2033.58 2820.48 2162.84" fill="#575e62"/><polygon points="2730.93 2136.99 2764.51 2156.37 2764.51 2065.89 2730.93 2046.51 2730.93 2136.99" fill="#4c5356"/><polygon points="2730.93 2136.99 2719.73 2143.45 2764.51 2169.3 2764.51 2156.37 2730.93 2136.99" fill="#575e62"/><polygon points="2730.93 2046.51 2719.73 2040.04 2719.73 2143.45 2730.93 2136.99 2730.93 2046.51" fill="#4c5356"/><polygon points="2820.48 2033.58 2753.32 1994.8 2708.54 2020.65 2775.7 2059.43 2820.48 2033.58" fill="#6d767a"/><polygon points="2730.93 2033.53 2730.93 2059.38 2742.12 2065.84 2742.12 2039.99 2730.93 2033.53" fill="#5a97d1"/><polygon points="2742.12 2039.99 2742.12 2065.84 2753.32 2072.31 2753.32 2046.45 2742.12 2039.99" fill="#ea8dba"/><polygon points="2753.32 2046.45 2753.32 2072.31 2764.51 2078.77 2764.51 2052.92 2753.32 2046.45" fill="#e95320"/><polygon points="2730.93 2111.13 2730.93 2136.99 2742.12 2143.45 2742.12 2117.6 2730.93 2111.13" fill="#ed6d2f"/><polygon points="2730.93 2111.13 2742.12 2104.67 2753.32 2111.13 2742.12 2117.6 2730.93 2111.13" fill="#ed6d2f"/><polygon points="2753.32 2124.06 2753.32 2149.91 2764.51 2156.37 2764.51 2130.52 2753.32 2124.06" fill="#d7dc42"/><polygon points="2753.32 2124.06 2764.51 2117.6 2764.51 2130.52 2753.32 2124.06" fill="#d7dc42"/><polygon points="2742.12 2117.6 2742.12 2143.45 2753.32 2149.91 2753.32 2124.06 2742.12 2117.6" fill="#534696"/><polygon points="2742.12 2117.6 2753.32 2124.06 2764.51 2117.6 2753.32 2111.13 2742.12 2117.6" fill="#534696"/><polygon points="2730.93 2072.36 2730.93 2098.21 2742.12 2104.67 2742.12 2078.82 2730.93 2072.36" fill="#b81827"/><polygon points="2730.93 2072.31 2742.12 2065.84 2753.32 2072.31 2742.12 2078.77 2730.93 2072.31" fill="#b81827"/><polygon points="2753.32 2085.28 2753.32 2111.13 2764.51 2117.6 2764.51 2091.75 2753.32 2085.28" fill="#fab521"/><polygon points="2753.32 2085.23 2764.51 2078.77 2764.51 2091.69 2753.32 2085.23" fill="#fab521"/><polygon points="2742.12 2078.82 2742.12 2104.67 2753.32 2111.13 2753.32 2085.28 2742.12 2078.82" fill="#51521c"/><polygon points="2742.12 2078.77 2753.32 2085.23 2764.51 2078.77 2753.32 2072.31 2742.12 2078.77" fill="#51521c"/><polygon points="2775.7 2059.43 2708.54 2020.65 2708.54 2033.58 2775.7 2072.36 2775.7 2059.43" fill="#626a6e"/><polygon points="2775.7 2188.69 2708.54 2149.91 2708.54 2136.99 2775.7 2175.76 2775.7 2188.69" fill="#626a6e"/><polygon points="2775.7 2072.36 2775.7 2175.76 2764.51 2169.3 2764.51 2065.89 2775.7 2072.36" fill="#626a6e"/><polygon points="2708.54 2033.58 2708.54 2136.99 2719.73 2143.45 2719.73 2040.04 2708.54 2033.58" fill="#626a6e"/></g><g id="Pot"><polygon points="3033.17 2337.34 3033.17 2311.48 3077.94 2337.34 3077.94 2363.19 3033.17 2337.34" fill="#bec2d0"/><polygon points="3122.72 2337.34 3077.94 2363.19 3077.94 2337.34 3122.72 2311.48 3122.72 2337.34" fill="#adb1bd"/><polygon points="3133.91 2305.02 3133.91 2292.09 3077.94 2324.41 3077.94 2337.34 3133.91 2305.02" fill="#bec2d0"/><polygon points="3077.94 2324.41 3077.94 2337.34 3021.97 2305.02 3021.97 2292.09 3077.94 2324.41" fill="#ced2e2"/><polygon points="3021.97 2292.09 3077.94 2259.78 3089.14 2266.24 3033.17 2298.56 3021.97 2292.09" fill="#dee2f3"/><polygon points="3077.94 2324.41 3066.75 2317.95 3122.72 2285.63 3133.91 2292.09 3077.94 2324.41" fill="#dee2f3"/><polygon points="3033.17 2298.56 3044.36 2292.09 3077.94 2311.48 3066.75 2317.95 3033.17 2298.56" fill="#dee2f3"/><polygon points="3089.14 2266.24 3077.94 2272.71 3111.52 2292.09 3122.72 2285.63 3089.14 2266.24" fill="#dee2f3"/><polygon points="3044.36 2292.09 3077.94 2272.71 3077.94 2311.48 3044.36 2292.09" fill="#adb1bd"/><polygon points="3111.52 2292.09 3077.94 2311.48 3077.94 2272.71 3111.52 2292.09" fill="#bec2d0"/></g><g id="Pot-2"><polygon points="2406.3 1975.41 2406.3 1949.56 2451.08 1975.41 2451.08 2001.27 2406.3 1975.41" fill="#bec2d0"/><polygon points="2495.85 1975.41 2451.08 2001.27 2451.08 1975.41 2495.85 1949.56 2495.85 1975.41" fill="#adb1bd"/><polygon points="2507.05 1943.1 2507.05 1930.17 2451.08 1962.49 2451.08 1975.41 2507.05 1943.1" fill="#bec2d0"/><polygon points="2451.08 1962.49 2451.08 1975.41 2395.11 1943.1 2395.11 1930.17 2451.08 1962.49" fill="#ced2e2"/><polygon points="2395.11 1930.17 2451.08 1897.86 2462.27 1904.32 2406.3 1936.64 2395.11 1930.17" fill="#dee2f3"/><polygon points="2451.08 1962.49 2439.88 1956.03 2495.85 1923.71 2507.05 1930.17 2451.08 1962.49" fill="#dee2f3"/><polygon points="2406.3 1936.64 2417.49 1930.17 2451.08 1949.56 2439.88 1956.03 2406.3 1936.64" fill="#dee2f3"/><polygon points="2462.27 1904.32 2451.08 1910.79 2484.66 1930.17 2495.85 1923.71 2462.27 1904.32" fill="#dee2f3"/><polygon points="2417.49 1930.17 2451.08 1910.79 2451.08 1949.56 2417.49 1930.17" fill="#adb1bd"/><polygon points="2484.66 1930.17 2451.08 1949.56 2451.08 1910.79 2484.66 1930.17" fill="#bec2d0"/></g><g id="Plant"><polygon points="3055.55 2298.56 3077.94 2285.63 3100.33 2298.56 3077.94 2311.48 3055.55 2298.56" fill="#9b6d3d"/><polygon points="3066.75 2305.02 3066.75 2279.17 3077.94 2285.63 3077.94 2311.48 3066.75 2305.02" fill="#6b4b28"/><polygon points="3089.14 2305.02 3089.14 2279.17 3077.94 2285.63 3077.94 2311.48 3089.14 2305.02" fill="#4e371a"/><polygon points="3044.36 2266.24 3044.36 2279.17 3077.94 2298.56 3077.94 2285.63 3044.36 2266.24" fill="#156825"/><polygon points="3111.52 2279.17 3077.94 2298.56 3077.94 2285.63 3111.52 2266.24 3111.52 2279.17" fill="#0c551c"/><polygon points="3033.17 2259.78 3077.94 2285.63 3077.94 2246.85 3033.17 2221 3033.17 2259.78" fill="#1c7a2c"/><polygon points="3122.72 2259.78 3122.72 2221 3077.94 2246.85 3077.94 2285.63 3122.72 2259.78" fill="#156825"/><polygon points="3100.33 2208.08 3100.33 2221 3077.94 2233.93 3055.55 2221 3055.55 2208.08 3033.17 2221 3077.94 2246.85 3122.72 2221 3100.33 2208.08" fill="#208b32"/><polygon points="3055.55 2221 3055.55 2208.08 3077.94 2221 3077.94 2233.93 3055.55 2221" fill="#1c7a2c"/><polygon points="3100.33 2221 3077.94 2233.93 3077.94 2221 3100.33 2208.08 3100.33 2221" fill="#156825"/><polygon points="3055.55 2208.08 3077.94 2195.15 3100.33 2208.08 3077.94 2221 3055.55 2208.08" fill="#208b32"/></g><g id="Plant-2"><polygon points="2428.69 1936.64 2451.08 1923.71 2473.47 1936.64 2451.08 1949.56 2428.69 1936.64" fill="#9b6d3d"/><polygon points="2439.88 1943.1 2439.88 1917.25 2451.08 1923.71 2451.08 1949.56 2439.88 1943.1" fill="#6b4b28"/><polygon points="2462.27 1943.1 2462.27 1917.25 2451.08 1923.71 2451.08 1949.56 2462.27 1943.1" fill="#4e371a"/><polygon points="2417.49 1904.32 2417.49 1917.25 2451.08 1936.64 2451.08 1923.71 2417.49 1904.32" fill="#156825"/><polygon points="2484.66 1917.25 2451.08 1936.64 2451.08 1923.71 2484.66 1904.32 2484.66 1917.25" fill="#0c551c"/><polygon points="2406.3 1897.86 2451.08 1923.71 2451.08 1884.93 2406.3 1859.08 2406.3 1897.86" fill="#1c7a2c"/><polygon points="2495.85 1897.86 2495.85 1859.08 2451.08 1884.93 2451.08 1923.71 2495.85 1897.86" fill="#156825"/><polygon points="2473.46 1846.16 2473.47 1859.08 2451.08 1872.01 2428.69 1859.08 2428.69 1846.16 2406.3 1859.08 2451.08 1884.93 2495.85 1859.08 2473.46 1846.16" fill="#208b32"/><polygon points="2428.69 1859.08 2428.69 1846.16 2451.08 1859.08 2451.08 1872.01 2428.69 1859.08" fill="#1c7a2c"/><polygon points="2473.47 1859.08 2451.08 1872.01 2451.08 1859.08 2473.47 1846.16 2473.47 1859.08" fill="#156825"/><polygon points="2428.69 1846.16 2451.08 1833.23 2473.47 1846.16 2451.08 1859.08 2428.69 1846.16" fill="#208b32"/></g></g><g id="Top"><polygon points="3145.11 2246.85 3346.6 2130.52 3346.6 2104.67 3145.11 2221 3145.11 2246.85" fill="#008951"/><polygon points="3145.11 2221 3145.11 2246.85 2070.48 1626.42 2070.48 1600.57 3145.11 2221" fill="#009457"/><polygon points="3346.6 2104.67 3145.11 2221 2070.48 1600.57 2271.97 1484.24 3346.6 2104.67" fill="#009f5e"/></g><polygon points="2544.14 1783.55 2551.84 1788 2563 1794.44 2544.14 1783.55" fill="none"/><path d="M2579.82,1797.68l-5.62,3.23-11.15,6.46c4.78-2.76,10.65-6.15,16.77-9.68Z" fill="none"/><polygon points="2182.42 1639.34 2216 1619.96 2227.2 1613.49 2249.58 1600.57 2182.42 1639.34" fill="none"/><polygon points="2400.7 1707.2 2350.33 1736.29 2395.11 1710.44 2400.7 1707.2" fill="none"/><polygon points="2563 1794.44 2563.03 1807.37 2563.03 1794.46 2563 1794.44" fill="none"/><polygon points="2645.11 1841.85 2630.18 1833.23 2630.18 1846.16 2641.38 1839.69 2645.11 1841.85" fill="#9ca3a7"/><polygon points="2652.57 1846.16 2652.57 1859.08 2719.73 1897.86 2719.73 1884.93 2652.57 1846.16" fill="#9ca3a7"/><polygon points="2739.79 1873.35 2719.73 1884.93 2719.73 1897.86 2730.93 1891.4 2730.93 1878.47 2739.79 1873.35" fill="#7e8386"/><polygon points="2753.32 1878.47 2809.29 1846.16 2809.29 1833.23 2742.12 1872.01 2753.32 1878.47" fill="#7e8386"/><path d="M2887.64,2007.73l-67.16-38.78h0s-11.19-6.46-11.19-6.46l44.78-25.85,22.39-12.93,55.97,32.31,67.16-38.78-145.52-84.02-67.16,38.78,78.36,45.24-11.19,6.46h0s-11.19,6.46-11.19,6.46l-89.55-51.7-11.19-6.46,67.16-38.78-89.55-51.7-11.19,6.46-254.16-146.74,7.89,4.56,67.16-38.78-11.19-6.46-67.16,38.78-89.55-51.7-89.55,51.7-33.58-19.39-11.19-6.46-11.19,6.46,55.97,32.31,89.55-51.7,156.72,90.48-11.19,6.46-64.16,37.05,8.19-4.73-33.58-19.39h0s-11.19-6.46-11.19-6.46l44.78-25.85-89.55-51.7-100.75,58.17,89.55,51.7,50.37-29.08-5.6,3.23,44.78,25.85-11.19,6.46-33.58,19.39,100.75,58.17,44.78-25.85,11.21-6.45-7.7-4.45,18.86,10.89.03.02,11.16,6.44,5.62-3.23c-6.13,3.54-11.99,6.92-16.77,9.68h-.01c-6.21,3.59-10.57,6.11-11.21,6.48l33.58,19.39,67.15-38.77-33.57-19.4s-16.78,9.69-33.58,19.39l-11.19-6.46-33.58-19.39-11.19-6.46,33.57-19.38-33.57-19.4s-65.12,39.78-67.16,38.78l33.58,19.39,22.4-12.92,22.38,12.92-11.19,6.46-33.58,19.39-67.16-38.78-11.19-6.46,111.94-64.63h0s167.91,96.94,167.91,96.94l-2.97,1.72-8.22,4.75-55.97,32.31,14.93,8.62-3.73-2.15-11.19,6.46-78.36,45.24,11.19,6.46,89.55-51.7,67.16,38.78,20.06-11.58-8.87,5.12,100.75,58.17-11.19,6.46-33.58,19.39,89.55,51.7,11.19-6.46Z" fill="#b8c0c6"/><polygon points="2730.93 1878.47 2730.93 1891.4 2730.93 1891.4 2820.48 1943.1 2831.67 1936.64 2730.93 1878.47" fill="#9ca3a7"/><polygon points="2854.06 1936.64 2809.29 1962.49 2820.48 1968.95 2820.48 1968.95 2854.06 1949.56 2876.45 1936.64 2876.45 1923.71 2854.06 1936.64" fill="#7e8386"/><polygon points="2361.52 1600.57 2361.52 1613.49 2507.05 1697.51 2518.24 1691.05 2361.52 1600.57" fill="#9ca3a7"/><polygon points="2697.35 1794.45 2529.44 1697.51 2529.44 1710.44 2686.15 1800.92 2694.37 1796.17 2697.35 1794.45" fill="#9ca3a7"/><polygon points="2271.97 1652.27 2271.97 1665.2 2361.52 1613.49 2361.52 1600.57 2271.97 1652.27" fill="#7e8386"/><polygon points="2216 1619.96 2216 1632.88 2271.97 1665.2 2271.97 1652.27 2216 1619.96" fill="#9ca3a7"/><polygon points="2529.44 1697.51 2417.5 1762.14 2428.69 1768.6 2529.44 1710.44 2529.44 1697.51 2529.44 1697.51" fill="#7e8386"/><polygon points="2395.11 1762.14 2395.11 1775.07 2495.85 1833.23 2495.85 1820.31 2395.11 1762.14" fill="#9ca3a7"/><polygon points="2395.11 1710.44 2395.11 1723.36 2428.69 1742.75 2439.88 1736.29 2395.11 1710.44" fill="#9ca3a7"/><polygon points="2473.46 1652.27 2518.24 1626.42 2529.44 1632.88 2529.44 1607.03 2462.27 1645.81 2473.46 1652.27" fill="#7e8386"/><polygon points="3189.88 2052.97 2999.58 1943.1 2876.45 2014.19 2887.64 2020.65 2999.58 1956.03 3167.49 2052.97 3156.3 2059.43 3010.78 2143.45 3021.97 2149.91 3189.88 2052.97" fill="#b8c0c6"/><polygon points="2887.64 2020.65 2898.84 2014.19 2910.03 2020.65 2999.58 1968.95 2999.58 1956.03 2887.64 2020.65" fill="#7e8386"/><polygon points="2999.58 1956.03 2999.58 1968.95 3156.3 2059.43 3167.49 2052.97 2999.58 1956.03" fill="#9ca3a7"/><polygon points="3189.88 2052.97 3021.97 2149.91 3021.97 2201.61 3044.36 2188.69 3033.17 2182.23 3033.17 2156.37 3178.69 2072.36 3178.69 2059.43 3189.88 2052.97" fill="#7e8386"/><polygon points="3010.78 2143.45 3010.78 2195.15 3021.97 2201.61 3021.97 2149.91 3010.78 2143.45" fill="#9ca3a7"/><polygon points="2887.64 2020.65 2910.03 2033.58 2921.23 2027.12 2910.03 2020.65 2898.84 2014.19 2887.64 2020.65" fill="#b8c0c6"/><polygon points="2876.45 2014.19 2786.9 1962.49 2786.9 1975.41 2876.45 2027.12 2887.64 2033.58 2898.84 2040.04 2898.84 2052.97 2943.61 2078.82 2943.61 2065.89 2898.84 2040.04 2910.03 2033.58 2887.64 2020.65 2876.45 2014.19" fill="#9ca3a7"/><polygon points="3178.69 2059.43 3178.69 2072.36 3189.88 2078.82 3201.08 2072.36 3178.69 2059.43" fill="#9ca3a7"/><polygon points="2842.87 1787.99 2786.9 1820.31 2798.09 1826.77 2854.06 1794.45 2842.87 1787.99" fill="#b8c0c6"/><polygon points="2854.06 1820.31 2854.06 1794.45 2798.09 1826.77 2809.29 1833.23 2842.87 1813.84 2854.06 1820.31" fill="#7e8386"/><polygon points="2563.02 1897.86 2563.02 1936.64 2585.41 1923.71 2574.21 1917.25 2574.21 1904.32 2652.57 1859.08 2652.57 1846.16 2563.02 1897.86" fill="#7e8386"/><polygon points="2551.82 1891.4 2551.82 1930.17 2563.02 1936.64 2563.02 1897.86 2551.82 1891.4" fill="#9ca3a7"/><polygon points="2943.61 2065.89 3044.36 2007.73 2999.58 1981.88 2910.03 2033.58 2898.84 2040.04 2943.61 2065.89" fill="#b8c0c6"/><polygon points="2943.61 2078.82 3021.97 2033.58 3021.97 2020.65 3033.17 2014.19 3044.36 2020.65 3044.36 2020.65 3044.36 2007.73 2943.61 2065.89 2943.61 2078.82" fill="#7e8386"/><polygon points="3021.97 2020.65 3055.55 2040.04 3044.36 2046.51 2966 2091.75 3010.78 2117.6 3122.72 2052.97 3077.94 2027.12 3066.75 2033.58 3044.36 2020.65 3033.17 2014.19 3021.97 2020.65" fill="#b8c0c6"/><polygon points="3021.97 2020.65 3021.97 2033.58 3044.36 2046.51 3055.55 2040.04 3021.97 2020.65" fill="#9ca3a7"/><polygon points="2966 2091.75 2966 2104.67 3010.78 2130.52 3010.78 2117.6 2966 2091.75" fill="#9ca3a7"/><polygon points="3010.78 2130.52 3122.72 2065.89 3122.72 2052.97 3010.78 2117.6 3010.78 2130.52" fill="#7e8386"/><polygon points="3313.02 2098.21 3234.66 2052.97 3212.27 2065.89 3189.88 2052.97 3178.69 2059.43 3201.08 2072.36 3189.88 2078.82 3066.75 2149.91 3145.11 2195.15 3313.02 2098.21" fill="#b8c0c6"/><polygon points="3313.02 2098.21 3145.11 2195.15 3145.11 2208.08 3313.02 2111.13 3313.02 2098.21" fill="#7e8386"/><polygon points="3066.75 2149.91 3066.75 2162.84 3145.11 2208.08 3145.11 2195.15 3066.75 2149.91" fill="#9ca3a7"/><polygon points="2865.26 1917.25 2786.9 1872.01 2786.9 1884.93 2854.06 1923.71 2854.06 1923.71 2865.26 1917.25" fill="#9ca3a7"/><polygon points="2876.45 1923.71 2876.45 1936.64 2932.42 1968.95 2932.42 1956.03 2876.45 1923.71" fill="#9ca3a7"/><polygon points="2932.42 1968.95 2999.58 1930.17 2999.58 1917.25 2932.42 1956.03 2932.42 1968.95" fill="#7e8386"/><polygon points="2249.58 1600.57 2271.97 1613.49 2372.72 1555.33 2271.97 1497.16 2104.06 1594.1 2182.42 1639.34 2249.58 1600.57" fill="#b8c0c6"/><polygon points="2227.2 1613.49 2238.39 1619.96 2249.58 1613.49 2249.58 1600.57 2227.2 1613.49" fill="#7e8386"/><polygon points="2249.58 1600.57 2249.58 1613.49 2271.97 1626.42 2271.97 1613.49 2249.58 1600.57" fill="#9ca3a7"/><polygon points="2271.97 1626.42 2372.72 1568.25 2372.72 1555.33 2271.97 1613.49 2271.97 1626.42" fill="#7e8386"/><polygon points="2182.42 1639.34 2182.42 1652.27 2216 1632.88 2216 1619.96 2182.42 1639.34" fill="#7e8386"/><polygon points="2104.06 1594.1 2104.06 1607.03 2182.42 1652.27 2182.42 1639.34 2104.06 1594.1" fill="#9ca3a7"/><polygon points="2462.27 1762.14 2462.27 1775.07 2495.85 1794.45 2495.85 1781.53 2462.27 1762.14" fill="#9ca3a7"/><polygon points="2495.85 1781.53 2495.85 1794.45 2518.25 1781.52 2518.25 1768.61 2495.85 1781.53" fill="#7e8386"/><polygon points="2540.63 1768.6 2563 1755.69 2563 1742.76 2529.44 1762.14 2540.63 1768.6" fill="#7e8386"/><polygon points="2551.82 1813.84 2551.82 1826.77 2585.41 1846.16 2585.41 1833.23 2551.82 1813.84" fill="#9ca3a7"/><polygon points="2585.41 1846.16 2652.55 1807.39 2652.55 1794.46 2585.41 1833.23 2585.41 1846.16" fill="#7e8386"/><polygon points="2540.63 1794.45 2495.85 1820.31 2495.85 1833.23 2540.63 1807.38 2551.84 1800.91 2551.84 1788 2540.63 1794.45" fill="#7e8386"/><polygon points="2574.2 1800.91 2563.03 1794.46 2563.03 1807.37 2563.05 1807.36 2574.2 1800.91" fill="#9ca3a7"/><polygon points="2518.25 1768.61 2518.25 1781.52 2518.25 1781.53 2529.44 1787.99 2540.63 1781.53 2518.25 1768.61" fill="#9ca3a7"/><polygon points="2551.84 1788 2551.84 1800.91 2563.03 1807.37 2563 1794.44 2551.84 1788" fill="#9ca3a7"/><polygon points="2260.78 1684.58 2260.78 1697.51 2350.33 1749.21 2350.33 1736.29 2260.78 1684.58" fill="#9ca3a7"/><polygon points="2350.33 1736.29 2350.33 1749.21 2395.11 1723.36 2395.11 1710.44 2350.33 1736.29" fill="#7e8386"/><polygon points="2417.5 1710.44 2417.5 1710.44 2451.08 1691.05 2451.08 1678.12 2406.3 1703.97 2417.5 1710.44" fill="#7e8386"/><polygon points="2988.39 2001.27 2988.39 1975.41 3010.78 1987.06 3010.78 2014.19 2988.39 2001.27" fill="#373a3b"/><polygon points="3021.97 2007.73 3010.78 2014.19 3010.78 1987.06 3021.97 1981.88 3021.97 2007.73" fill="#292c2c"/><polygon points="2988.39 1975.41 2999.58 1968.95 3021.97 1981.88 3010.78 1987.06 2988.39 1975.41" fill="#444849"/><polygon points="2966 2014.19 2966 1988.34 2988.39 1999.99 2988.39 2027.12 2966 2014.19" fill="#373a3b"/><polygon points="2999.58 2020.65 2988.39 2027.12 2988.39 1999.99 2999.58 1994.8 2999.58 2020.65" fill="#292c2c"/><polygon points="2966 1988.34 2977.2 1981.88 2999.58 1994.8 2988.39 1999.99 2966 1988.34" fill="#444849"/><polygon points="2943.61 2027.12 2943.61 2001.27 2966 2012.91 2966 2040.04 2943.61 2027.12" fill="#373a3b"/><polygon points="2977.2 2033.58 2966 2040.04 2966 2012.91 2977.2 2007.73 2977.2 2033.58" fill="#292c2c"/><polygon points="2943.61 2001.27 2954.81 1994.8 2977.2 2007.73 2966 2012.91 2943.61 2001.27" fill="#444849"/><polygon points="2921.23 2040.04 2921.23 2014.19 2943.61 2025.84 2943.61 2052.97 2921.23 2040.04" fill="#373a3b"/><polygon points="2954.81 2046.51 2943.61 2052.97 2943.61 2025.84 2954.81 2020.65 2954.81 2046.51" fill="#292c2c"/><polygon points="2921.23 2014.19 2932.42 2007.73 2954.81 2020.65 2943.61 2025.84 2921.23 2014.19" fill="#444849"/><polygon points="3055.55 2052.97 3055.55 2027.12 3077.94 2038.77 3077.94 2065.89 3055.55 2052.97" fill="#373a3b"/><polygon points="3089.14 2059.43 3077.94 2065.89 3077.94 2038.77 3089.14 2033.58 3089.14 2059.43" fill="#292c2c"/><polygon points="3055.55 2027.12 3066.75 2020.65 3089.14 2033.58 3077.94 2038.77 3055.55 2027.12" fill="#444849"/><polygon points="3033.17 2065.89 3033.17 2040.04 3055.55 2051.69 3055.55 2078.82 3033.17 2065.89" fill="#373a3b"/><polygon points="3066.75 2072.36 3055.55 2078.82 3055.55 2051.69 3066.75 2046.51 3066.75 2072.36" fill="#292c2c"/><polygon points="3033.17 2040.04 3044.36 2033.58 3066.75 2046.51 3055.55 2051.69 3033.17 2040.04" fill="#444849"/><polygon points="3010.78 2078.82 3010.78 2052.97 3033.17 2064.62 3033.17 2091.75 3010.78 2078.82" fill="#373a3b"/><polygon points="3044.36 2085.28 3033.17 2091.75 3033.17 2064.62 3044.36 2059.43 3044.36 2085.28" fill="#292c2c"/><polygon points="3010.78 2052.97 3021.97 2046.51 3044.36 2059.43 3033.17 2064.62 3010.78 2052.97" fill="#444849"/><polygon points="2988.39 2091.75 2988.39 2065.89 3010.78 2077.54 3010.78 2104.67 2988.39 2091.75" fill="#373a3b"/><polygon points="3021.97 2098.21 3010.78 2104.67 3010.78 2077.54 3021.97 2072.36 3021.97 2098.21" fill="#292c2c"/><polygon points="2988.39 2065.89 2999.58 2059.43 3021.97 2072.36 3010.78 2077.54 2988.39 2065.89" fill="#444849"/><polygon points="2607.81 1794.44 2607.81 1781.54 2618.99 1787.99 2618.97 1800.91 2607.81 1794.44" fill="#373a3b"/><polygon points="2630.17 1794.46 2618.97 1800.91 2618.99 1787.99 2630.17 1781.52 2630.17 1794.46" fill="#292c2c"/><polygon points="2607.81 1781.54 2618.99 1787.99 2630.17 1781.52 2618.99 1775.06 2607.81 1781.54" fill="#444849"/><polygon points="2596.63 1800.9 2596.63 1787.99 2607.81 1794.44 2607.79 1807.36 2596.63 1800.9" fill="#373a3b"/><polygon points="2618.99 1800.92 2607.79 1807.36 2607.81 1794.44 2618.99 1787.97 2618.99 1800.92" fill="#292c2c"/><polygon points="2596.63 1787.99 2607.81 1794.44 2618.99 1787.97 2607.81 1781.52 2596.63 1787.99" fill="#444849"/><polygon points="2585.45 1807.35 2585.45 1794.44 2596.63 1800.9 2596.62 1813.81 2585.45 1807.35" fill="#373a3b"/><polygon points="2607.81 1807.37 2596.62 1813.81 2596.63 1800.9 2607.81 1794.43 2607.81 1807.37" fill="#292c2c"/><polygon points="2585.45 1794.44 2596.63 1800.9 2607.81 1794.43 2596.63 1787.97 2585.45 1794.44" fill="#444849"/><polygon points="2574.23 1813.82 2574.23 1800.91 2585.41 1807.37 2585.39 1820.28 2574.23 1813.82" fill="#373a3b"/><polygon points="2596.58 1813.84 2585.39 1820.28 2585.41 1807.37 2596.58 1800.9 2596.58 1813.84" fill="#292c2c"/><polygon points="2574.23 1800.91 2585.41 1807.37 2596.58 1800.9 2585.41 1794.44 2574.23 1800.91" fill="#444849"/><polygon points="2518.24 1742.77 2518.24 1729.86 2529.42 1736.31 2529.4 1749.23 2518.24 1742.77" fill="#373a3b"/><polygon points="2540.6 1742.79 2529.4 1749.23 2529.42 1736.31 2540.6 1729.84 2540.6 1742.79" fill="#292c2c"/><polygon points="2518.24 1729.86 2529.42 1736.31 2540.6 1729.84 2529.42 1723.39 2518.24 1729.86" fill="#444849"/><polygon points="2507.06 1749.22 2507.06 1736.31 2518.24 1742.77 2518.22 1755.68 2507.06 1749.22" fill="#373a3b"/><polygon points="2529.42 1749.24 2518.22 1755.68 2518.24 1742.77 2529.42 1736.3 2529.42 1749.24" fill="#292c2c"/><polygon points="2507.06 1736.31 2518.24 1742.77 2529.42 1736.3 2518.24 1729.84 2507.06 1736.31" fill="#444849"/><polygon points="2495.88 1755.67 2495.88 1742.77 2507.06 1749.22 2507.05 1762.14 2495.88 1755.67" fill="#373a3b"/><polygon points="2518.24 1755.69 2507.05 1762.14 2507.06 1749.22 2518.24 1742.75 2518.24 1755.69" fill="#292c2c"/><polygon points="2495.88 1742.77 2507.06 1749.22 2518.24 1742.75 2507.06 1736.3 2495.88 1742.77" fill="#444849"/><polygon points="2484.66 1762.14 2484.66 1749.24 2495.84 1755.69 2495.82 1768.61 2484.66 1762.14" fill="#373a3b"/><polygon points="2507.01 1762.16 2495.82 1768.61 2495.84 1755.69 2507.01 1749.22 2507.01 1762.16" fill="#292c2c"/><polygon points="2484.66 1749.24 2495.84 1755.69 2507.01 1749.22 2495.84 1742.76 2484.66 1749.24" fill="#444849"/><polygon points="2428.69 1678.12 2428.69 1665.2 2395.11 1684.58 2395.11 1697.51 2428.69 1678.12" fill="#292c2c"/><polygon points="2327.94 1658.73 2327.94 1645.81 2395.11 1684.58 2395.11 1697.51 2327.94 1658.73" fill="#373a3b"/><polygon points="2361.52 1626.42 2327.94 1645.81 2395.11 1684.58 2428.69 1665.2 2361.52 1626.42" fill="#444849"/><polygon points="2350.33 1723.36 2350.33 1710.44 2383.91 1691.05 2383.91 1703.97 2350.33 1723.36" fill="#292c2c"/><polygon points="2283.17 1684.58 2283.17 1671.66 2350.33 1710.44 2350.33 1723.36 2283.17 1684.58" fill="#373a3b"/><polygon points="2383.91 1691.05 2350.33 1710.44 2283.17 1671.66 2316.75 1652.27 2383.91 1691.05" fill="#444849"/><polygon points="2854.06 1833.23 2809.29 1859.08 2831.67 1872.01 2876.45 1846.16 2854.06 1833.23" fill="#444849"/><polygon points="2831.67 1884.93 2831.67 1872.01 2809.29 1859.08 2809.29 1872.01 2831.67 1884.93" fill="#373a3b"/><polygon points="2876.45 1846.16 2876.45 1859.08 2831.67 1884.93 2831.67 1872.01 2876.45 1846.16" fill="#292c2c"/><polygon points="2887.64 1852.62 2842.87 1878.47 2865.26 1891.4 2910.03 1865.55 2887.64 1852.62" fill="#444849"/><polygon points="2865.26 1904.32 2865.26 1891.4 2842.87 1878.47 2842.87 1891.4 2865.26 1904.32" fill="#373a3b"/><polygon points="2910.03 1865.55 2910.03 1878.47 2865.26 1904.32 2865.26 1891.4 2910.03 1865.55" fill="#292c2c"/><polygon points="2921.23 1872.01 2876.45 1897.86 2898.84 1910.79 2943.61 1884.93 2921.23 1872.01" fill="#444849"/><polygon points="2898.84 1923.71 2898.84 1910.79 2876.45 1897.86 2876.45 1910.79 2898.84 1923.71" fill="#373a3b"/><polygon points="2943.61 1884.93 2943.61 1897.86 2898.84 1923.71 2898.84 1910.79 2943.61 1884.93" fill="#292c2c"/><polygon points="2954.81 1891.4 2910.03 1917.25 2932.42 1930.17 2977.2 1904.32 2954.81 1891.4" fill="#444849"/><polygon points="2932.42 1943.1 2932.42 1930.17 2910.03 1917.25 2910.03 1930.17 2932.42 1943.1" fill="#373a3b"/><polygon points="2977.2 1904.32 2977.2 1917.25 2932.42 1943.1 2932.42 1930.17 2977.2 1904.32" fill="#292c2c"/><polygon points="2271.97 1497.16 2350.33 1542.4 2271.97 1587.64 2193.61 1542.4 2271.97 1497.16" fill="#444849"/><polygon points="2271.97 1600.57 2271.97 1587.64 2193.61 1542.4 2193.61 1555.33 2271.97 1600.57" fill="#373a3b"/><polygon points="2350.33 1542.4 2271.97 1587.64 2271.97 1600.57 2350.33 1555.33 2350.33 1542.4" fill="#292c2c"/><polygon points="2182.42 1548.86 2126.45 1581.18 2182.42 1613.49 2238.39 1581.18 2182.42 1548.86" fill="#444849"/><polygon points="2182.42 1626.42 2182.42 1613.49 2238.39 1581.18 2238.39 1594.1 2182.42 1626.42" fill="#292c2c"/><polygon points="2126.45 1594.1 2126.45 1581.18 2182.42 1613.49 2182.42 1626.42 2126.45 1594.1" fill="#373a3b"/><polygon points="3234.66 2052.97 3290.63 2085.28 3234.66 2117.6 3178.69 2085.28 3234.66 2052.97" fill="#444849"/><polygon points="3234.66 2130.52 3290.63 2098.21 3290.63 2085.28 3234.66 2117.6 3234.66 2130.52" fill="#292c2c"/><polygon points="3178.69 2085.28 3234.66 2117.6 3234.66 2130.52 3178.69 2098.21 3178.69 2085.28" fill="#373a3b"/><polygon points="3089.14 2149.91 3089.14 2136.99 3145.11 2169.3 3145.11 2182.23 3089.14 2149.91" fill="#373a3b"/><polygon points="3201.08 2136.99 3201.08 2149.91 3145.11 2182.23 3145.11 2169.3 3201.08 2136.99" fill="#292c2c"/><polygon points="3089.14 2136.99 3145.11 2169.3 3201.08 2136.99 3145.11 2104.67 3089.14 2136.99" fill="#444849"/><polygon points="2652.61 1820.28 2719.73 1781.53 2786.9 1820.31 2719.75 1859.09 2652.61 1820.28" fill="#95a6b1"/><polygon points="2719.75 1872.02 2719.75 1859.09 2652.61 1820.28 2652.61 1833.21 2719.75 1872.02" fill="#83929b"/><polygon points="2786.9 1820.31 2719.75 1859.09 2719.75 1872.02 2786.9 1833.23 2786.9 1820.31" fill="#717e86"/></g></svg>