<?xml version="1.0" encoding="UTF-8"?><svg className={styles.train} xmlns="http://www.w3.org/2000/svg" viewBox="0 0 4993.32 4547.97"><g id="Wagon_Body"><polygon points="2607.79 2272.71 2607.79 2479.52 2786.9 2376.11 2786.9 2169.3 2607.79 2272.71" fill="#c21f32"/><polygon points="1891.38 1859.08 2607.79 2272.71 2786.9 2169.3 2070.48 1755.68 1891.38 1859.08" fill="#e6213c"/><polygon points="2607.79 2479.52 2607.79 2272.71 1891.38 1859.08 1891.37 2065.89 2607.79 2479.52" fill="#d42037"/></g><g id="Wagon_Details"><g id="Bumper"><polygon points="2786.9 2363.19 2786.9 2376.11 2618.99 2473.06 2596.6 2473.06 1891.37 2065.89 1891.38 2052.97 1880.18 2059.43 1880.18 2072.36 2596.6 2485.98 2618.99 2485.98 2798.09 2382.58 2798.09 2369.65 2786.9 2363.19" fill="#82a79f"/><polygon points="2798.09 2395.5 2798.09 2382.58 2618.99 2485.98 2596.6 2485.98 1880.18 2072.36 1880.18 2085.28 2596.6 2498.91 2618.99 2498.91 2798.09 2395.5" fill="#6e8e86"/></g><g id="Door"><polygon points="2104.06 2033.58 2104.06 2188.69 2115.26 2182.23 2115.26 2040.04 2104.06 2033.58" fill="#b01e2d"/><polygon points="2204.81 2233.93 2204.81 2246.85 2104.06 2188.69 2115.26 2182.23 2204.81 2233.93" fill="#c21f32"/><polygon points="2115.26 2040.04 2204.81 2091.75 2204.81 2233.93 2115.26 2182.23 2115.26 2040.04" fill="#dee2f3"/><polygon points="2182.42 2169.3 2171.23 2175.76 2171.23 2162.84 2182.42 2169.3" fill="#bec2d0"/><polygon points="2193.61 2188.69 2193.61 2175.76 2182.42 2169.3 2171.23 2175.76 2193.61 2188.69" fill="#ced2e2"/></g><polygon id="Window" points="2574.21 2292.09 2574.21 2369.65 2216 2162.84 2216 2085.28 2574.21 2292.09" fill="#3a0300"/><g id="Bench"><polygon points="2574.21 2369.65 2551.82 2382.58 2193.61 2175.76 2216 2162.84 2574.21 2369.65" fill="#6b4b28"/><polygon points="2551.82 2395.5 2551.82 2382.58 2574.21 2369.65 2574.21 2382.58 2551.82 2395.5" fill="#453015"/><polygon points="2193.61 2175.76 2551.82 2382.58 2551.82 2395.5 2193.61 2188.69 2193.61 2175.76" fill="#583e1f"/></g><g id="Awning"><polygon points="2574.21 2292.09 2540.63 2324.41 2518.24 2311.48 2550.73 2278.54 2574.21 2292.09" fill="#d51224"/><polygon points="2529.43 2266.24 2550.73 2278.54 2518.24 2311.48 2495.85 2298.56 2529.43 2266.24" fill="#fff"/><polygon points="2529.43 2266.24 2495.85 2298.56 2473.46 2285.63 2505.95 2252.69 2529.43 2266.24" fill="#d51224"/><polygon points="2484.66 2240.39 2505.95 2252.69 2473.46 2285.63 2451.08 2272.71 2484.66 2240.39" fill="#fff"/><polygon points="2484.66 2240.39 2451.08 2272.71 2428.69 2259.78 2461.18 2226.83 2484.66 2240.39" fill="#d51224"/><polygon points="2439.88 2214.54 2461.18 2226.83 2428.69 2259.78 2406.3 2246.85 2439.88 2214.54" fill="#fff"/><polygon points="2439.88 2214.54 2406.3 2246.85 2383.91 2233.93 2416.4 2200.98 2439.88 2214.54" fill="#d51224"/><polygon points="2395.11 2188.69 2416.4 2200.98 2383.91 2233.93 2361.52 2221 2395.11 2188.69" fill="#fff"/><polygon points="2395.11 2188.69 2361.52 2221 2339.14 2208.08 2371.62 2175.13 2395.11 2188.69" fill="#d51224"/><polygon points="2350.33 2162.84 2371.62 2175.13 2339.14 2208.08 2316.75 2195.15 2350.33 2162.84" fill="#fff"/><polygon points="2350.33 2162.84 2316.75 2195.15 2294.36 2182.23 2326.85 2149.28 2350.33 2162.84" fill="#d51224"/><polygon points="2305.55 2136.99 2326.85 2149.28 2294.36 2182.23 2271.97 2169.3 2305.55 2136.99" fill="#fff"/><polygon points="2305.55 2136.99 2271.97 2169.3 2249.58 2156.37 2282.07 2123.43 2305.55 2136.99" fill="#d51224"/><polygon points="2260.78 2111.13 2282.07 2123.43 2249.58 2156.37 2227.2 2143.45 2260.78 2111.13" fill="#fff"/><polygon points="2260.78 2111.13 2227.2 2143.45 2204.81 2130.52 2237.3 2097.58 2260.78 2111.13" fill="#d51224"/><polygon points="2216 2085.28 2237.3 2097.58 2204.81 2130.52 2182.42 2117.6 2216 2085.28" fill="#fff"/><polygon points="2540.63 2324.41 2574.21 2305.02 2574.21 2292.09 2540.63 2324.41" fill="#b61220"/></g><g id="Chimney"><polygon points="2014.51 1859.08 2070.48 1891.4 2070.48 1878.47 2014.51 1846.16 2014.51 1859.08" fill="#ced2e2"/><polygon points="2126.45 1859.08 2070.48 1891.4 2070.48 1878.47 2126.45 1846.16 2126.45 1859.08" fill="#bec2d0"/><polygon points="2014.51 1846.16 2070.48 1813.84 2081.67 1820.3 2025.7 1852.62 2014.51 1846.16" fill="#dee2f3"/><polygon points="2126.45 1846.16 2115.26 1839.69 2059.29 1872.01 2070.48 1878.47 2126.45 1846.16" fill="#dee2f3"/><polygon points="2081.67 1820.3 2115.26 1839.69 2104.06 1846.16 2070.48 1826.77 2081.67 1820.3" fill="#dee2f3"/><polygon points="2036.9 1846.16 2025.7 1852.62 2059.29 1872.01 2070.48 1865.54 2036.9 1846.16" fill="#dee2f3"/><polygon points="2070.48 1826.77 2070.48 1839.69 2048.09 1852.62 2036.9 1846.16 2070.48 1826.77" fill="#adb1bd"/><polygon points="2104.06 1846.16 2092.87 1852.62 2070.48 1839.69 2070.48 1826.77 2104.06 1846.16" fill="#bec2d0"/><polygon points="2070.48 1839.69 2048.09 1852.62 2070.48 1865.54 2092.87 1852.62 2070.48 1839.69" fill="#4c4d52"/></g></g><polygon points="2966 2376.11 3010.78 2298.56 3010.78 2195.15 2966 2272.71 2966 2376.11" fill="#c21f32"/><polygon points="2831.67 2401.96 2921.23 2453.67 2988.39 2492.44 3122.72 2466.59 3167.49 2389.04 3100.33 2350.26 3010.78 2298.56 2966 2376.11 2831.67 2401.96" fill="#e6213c"/><polygon points="2966 2272.71 3010.78 2195.15 2831.67 2091.75 2652.57 2195.15 2831.67 2298.56 2966 2272.71" fill="#e6213c"/><polygon points="2988.39 2492.44 2921.23 2453.67 2831.67 2401.96 2966 2376.11 2966 2272.71 2831.67 2298.56 2652.57 2195.15 2652.57 2505.37 2921.23 2660.48 2988.39 2699.26 3122.72 2673.4 3122.72 2466.59 2988.39 2492.44" fill="#d42037"/><polygon points="3122.72 2466.59 3122.72 2673.4 3167.49 2595.85 3167.49 2389.04 3122.72 2466.59" fill="#c21f32"/><g id="Train_Details"><g id="Chimney-2"><path d="M3089.14,2382.57l-55.97-32.31-55.97,32.31,55.97,32.31,55.97-32.31ZM3033.17,2363.19l33.58,19.39-33.58,19.39-33.58-19.39,33.58-19.39Z" fill="#6d767a"/><polygon points="3033.17 2363.19 2999.58 2382.57 3033.17 2401.96 3033.17 2363.19" fill="#4c5356"/><polygon points="3066.75 2382.58 3033.17 2363.19 3033.17 2401.96 3066.75 2382.58" fill="#575e62"/><polygon points="2988.39 2414.89 3033.17 2440.74 3033.17 2414.89 2977.2 2382.57 2977.2 2408.43 2988.39 2414.89 2988.39 2414.89" fill="#626a6e"/><polygon points="3033.17 2440.74 3077.94 2414.89 3077.94 2414.89 3089.14 2408.43 3089.14 2382.57 3033.17 2414.89 3033.17 2440.74" fill="#575e62"/><polygon points="2988.39 2414.89 2988.39 2414.89 2988.39 2427.82 3033.17 2453.67 3033.17 2440.74 2988.39 2414.89" fill="#575e62"/><polygon points="3033.17 2440.74 3033.17 2453.67 3077.94 2427.82 3077.94 2415.87 3077.94 2414.89 3077.94 2414.89 3033.17 2440.74" fill="#4c5356"/></g><g id="Front_Window"><polygon points="2999.58 2305.02 2999.58 2274.86 2999.58 2227.47 2968.8 2280.78 2968.8 2358.34 2999.58 2305.02" fill="#79aed2"/><polygon points="2842.87 2330.87 2910.18 2292.18 2943.61 2285.63 2842.87 2343.8 2842.87 2382.58 2943.61 2363.19 2943.61 2363.19 2968.8 2358.34 2968.8 2280.78 2842.87 2305.02 2842.87 2330.87" fill="#86c2eb"/><polygon points="2910.18 2292.18 2842.87 2330.87 2842.87 2343.8 2943.61 2285.63 2910.18 2292.18" fill="#fff"/></g><g id="Stair"><polygon points="2697.35 2427.82 2697.35 2440.74 2764.51 2479.52 2786.9 2479.52 2798.09 2485.98 2786.9 2492.44 2764.51 2492.44 2674.96 2440.74 2674.96 2427.82 2686.15 2421.35 2697.35 2427.82" fill="#ced2e2"/><polygon points="2674.96 2453.67 2674.96 2440.74 2764.51 2492.44 2786.9 2492.44 2798.09 2485.98 2798.09 2498.91 2786.9 2505.37 2764.51 2505.37 2674.96 2453.67" fill="#bec2d0"/></g><g id="Stair-2"><polygon points="2697.35 2466.59 2697.35 2479.52 2764.51 2518.3 2786.9 2518.3 2798.09 2524.76 2786.9 2531.22 2764.51 2531.22 2674.96 2479.52 2674.96 2466.59 2686.15 2460.13 2697.35 2466.59" fill="#ced2e2"/><polygon points="2674.96 2492.44 2674.96 2479.52 2764.51 2531.22 2786.9 2531.22 2798.09 2524.76 2798.09 2537.68 2786.9 2544.15 2764.51 2544.15 2674.96 2492.44" fill="#bec2d0"/></g><g id="Door-2"><polygon points="2697.35 2246.85 2697.35 2401.96 2708.54 2395.5 2708.54 2253.32 2697.35 2246.85" fill="#b01e2d"/><polygon points="2798.09 2447.2 2798.09 2460.13 2697.35 2401.96 2708.54 2395.5 2798.09 2447.2" fill="#c21f32"/><polygon points="2708.54 2253.32 2798.09 2305.02 2798.09 2447.2 2708.54 2395.5 2708.54 2253.32" fill="#dee2f3"/><polygon points="2775.7 2382.58 2764.51 2389.04 2764.51 2376.11 2775.7 2382.58" fill="#bec2d0"/><polygon points="2786.9 2401.96 2786.9 2389.04 2775.7 2382.58 2764.51 2389.04 2786.9 2401.96" fill="#ced2e2"/></g><g id="Lights"><polygon points="3021.97 2524.76 3055.55 2518.3 3055.55 2544.15 3021.97 2550.61 3021.97 2524.76" fill="#deb067"/><polygon points="3156.3 2434.28 3145.11 2453.67 3145.11 2479.52 3156.3 2460.13 3156.3 2434.28" fill="#deb067"/></g><g id="Bumper-2"><polygon points="2652.57 2492.44 2641.38 2498.91 2641.38 2511.83 2977.2 2705.72 2999.58 2705.72 3133.91 2679.87 3178.69 2602.31 3178.69 2589.39 3167.49 2582.92 3167.49 2595.85 3122.72 2673.4 2988.39 2699.26 2652.57 2505.37 2652.57 2492.44" fill="#82a79f"/><polygon points="2641.38 2524.76 2641.38 2511.83 2977.2 2705.72 2999.58 2705.72 3133.91 2679.87 3178.69 2602.31 3178.69 2615.24 3133.91 2692.79 2999.58 2718.64 2977.2 2718.64 2641.38 2524.76" fill="#6e8e86"/></g></g></svg>